<mxfile host="app.diagrams.net" modified="2023-01-18T11:50:54.628Z" agent="5.0 (Windows NT 10.0; Win64; x64) AppleWebKit/537.36 (KHTML, like Gecko) Chrome/109.0.0.0 Safari/537.36" version="20.8.5" etag="V6n2ocBAqgqRQWyqu5DG" type="github">
  <diagram id="aD9ZqqaFL96F9ADnGmAY" name="PÃ¡gina-1">
    <mxGraphModel dx="1434" dy="798" grid="1" gridSize="10" guides="1" tooltips="1" connect="1" arrows="1" fold="1" page="1" pageScale="1" pageWidth="827" pageHeight="1169" math="0" shadow="0">
      <root>
        <mxCell id="0" />
        <mxCell id="1" parent="0" />
        <mxCell id="PuBdx-pKXjSFzNB67IjU-1" value="" style="shape=image;verticalLabelPosition=bottom;labelBackgroundColor=default;verticalAlign=top;aspect=fixed;imageAspect=0;image=data:image/svg+xml,PHN2ZyB4bWxuczp4bGluaz0iaHR0cDovL3d3dy53My5vcmcvMTk5OS94bGluayIgeG1sbnM9Imh0dHA6Ly93d3cudzMub3JnLzIwMDAvc3ZnIiBoZWlnaHQ9IjE0MTAuNSIgd2lkdGg9IjE0ODEuMzMiIHZpZXdCb3g9IjAgMCAxNDgxLjMzIDE0MTAuNSI+PGcgdHJhbnNmb3JtPSJ0cmFuc2xhdGUoLTIwIDE2MCkiPjxwYXRoIGZpbGw9IiNiOGY1ZWQiIHN0cm9rZS13aWR0aD0iMyIgc3Ryb2tlPSIjNWU1ZTVlIiBkPSJNNTYwIDI2YTYgNiAwIDAgMSA2LTZoMTQ4YTYgNiAwIDAgMSA2IDZ2MTA4YTYgNiAwIDAgMS02IDZINTY2YTYgNiAwIDAgMS02LTZ6Ii8+PHVzZSB0cmFuc2Zvcm09Im1hdHJpeCgxLDAsMCwxLDU3MiwzMikgdHJhbnNsYXRlKDMzLjUyNDY5MTM1ODAyNDY5IDUzLjc3Nzc3Nzc3Nzc3Nzc4KSIgeGxpbms6aHJlZj0iI2EiLz48cGF0aCBmaWxsPSIjYjhmNWVkIiBzdHJva2Utd2lkdGg9IjMiIHN0cm9rZT0iIzVlNWU1ZSIgZD0iTTU2MCA4NTUuNWE2IDYgMCAwIDEgNi02aDE0OGE2IDYgMCAwIDEgNiA2djEwOGE2IDYgMCAwIDEtNiA2SDU2NmE2IDYgMCAwIDEtNi02eiIvPjx1c2UgdHJhbnNmb3JtPSJtYXRyaXgoMSwwLDAsMSw1NzIsODYxLjUwMzA5MDkyMjI5MzMpIHRyYW5zbGF0ZSgyNi42NzI4Mzk1MDYxNzI4MzUgNTMuNzc3Nzc3Nzc3Nzc3NzgpIiB4bGluazpocmVmPSIjYiIvPjxwYXRoIGZpbGw9IiNmZmVjYTkiIHN0cm9rZS13aWR0aD0iMyIgc3Ryb2tlPSIjNWU1ZTVlIiBkPSJNNTAwLTk1YzAgMjIuMS0zNS44MiA0MC04MCA0MHMtODAtMTcuOS04MC00MCAzNS44Mi00MCA4MC00MCA4MCAxNy45IDgwIDQweiIvPjx1c2UgdHJhbnNmb3JtPSJtYXRyaXgoMSwwLDAsMSwzNDUsLTEzMCkgdHJhbnNsYXRlKDM3LjQwNzQwNzQwNzQwNzQxIDM5LjY1Mjc3Nzc3Nzc3Nzc4KSIgeGxpbms6aHJlZj0iI2MiLz48cGF0aCBmaWxsPSIjZmZlY2E5IiBzdHJva2Utd2lkdGg9IjMiIHN0cm9rZT0iIzVlNWU1ZSIgZD0iTTY4MC05NWMwIDIyLjEtMzUuODIgNDAtODAgNDBzLTgwLTE3LjktODAtNDAgMzUuODItNDAgODAtNDAgODAgMTcuOSA4MCA0MHoiLz48dXNlIHRyYW5zZm9ybT0ibWF0cml4KDEsMCwwLDEsNTI1LC0xMzApIHRyYW5zbGF0ZSgzMC42NDgxNDgxNDgxNDgxMzggMzkuNjUyNzc3Nzc3Nzc3NzgpIiB4bGluazpocmVmPSIjZCIvPjxwYXRoIGZpbGw9IiNmZmVjYTkiIHN0cm9rZS13aWR0aD0iMyIgc3Ryb2tlPSIjNWU1ZTVlIiBkPSJNODUwLjY3LTk5LjMzYzAgMjIuMS0zNS44MiA0MC04MCA0MC00NC4yIDAtODAtMTcuOS04MC00MHMzNS44LTQwIDgwLTQwYzQ0LjE4IDAgODAgMTcuOSA4MCA0MHoiLz48dXNlIHRyYW5zZm9ybT0ibWF0cml4KDEsMCwwLDEsNjk1LjY2NjY2NjY2NjY2NjUsLTEzNC4zMzMzMzMzMzMzMzMzNykgdHJhbnNsYXRlKDMwLjY0ODE0ODE0ODE0ODEzOCAzOS42NTI3Nzc3Nzc3Nzc3OCkiIHhsaW5rOmhyZWY9IiNlIi8+PHBhdGggZmlsbD0iI2ZmZWNhOSIgc3Ryb2tlLXdpZHRoPSIzIiBzdHJva2U9IiM1ZTVlNWUiIGQ9Ik0xMDIxLjMzLTEwMGMwIDIyLjEtMzUuOCA0MC04MCA0MC00NC4xOCAwLTgwLTE3LjktODAtNDBzMzUuODItNDAgODAtNDBjNDQuMiAwIDgwIDE3LjkgODAgNDB6Ii8+PHVzZSB0cmFuc2Zvcm09Im1hdHJpeCgxLDAsMCwxLDg2Ni4zMzMzMzMzMzMzMzMsLTEzNSkgdHJhbnNsYXRlKDU1LjkyNTkyNTkyNTkyNTkyNCAzOS42NTI3Nzc3Nzc3Nzc3OCkiIHhsaW5rOmhyZWY9IiNmIi8+PHBhdGggZmlsbD0iI2ZmZWNhOSIgc3Ryb2tlLXdpZHRoPSIzIiBzdHJva2U9IiM1ZTVlNWUiIGQ9Ik0yMDAtMTBjMCAyMi4xLTM1LjgyIDQwLTgwIDQwUzQwIDEyLjEgNDAtMTBzMzUuODItNDAgODAtNDAgODAgMTcuOSA4MCA0MHoiLz48dXNlIHRyYW5zZm9ybT0ibWF0cml4KDEsMCwwLDEsNDUsLTQ1KSB0cmFuc2xhdGUoMzUuNTI0NjkxMzU4MDI0NjkgMzkuNjUyNzc3Nzc3Nzc3NzgpIiB4bGluazpocmVmPSIjZyIvPjxwYXRoIGZpbGw9IiNmZmVjYTkiIHN0cm9rZS13aWR0aD0iMyIgc3Ryb2tlPSIjNWU1ZTVlIiBkPSJNMjAwIDgwYzAgMjIuMS0zNS44MiA0MC04MCA0MHMtODAtMTcuOS04MC00MCAzNS44Mi00MCA4MC00MCA4MCAxNy45IDgwIDQweiIvPjx1c2UgdHJhbnNmb3JtPSJtYXRyaXgoMSwwLDAsMSw0NSw0NSkgdHJhbnNsYXRlKDUxLjU0MzIwOTg3NjU0MzIxNiAzOS42NTI3Nzc3Nzc3Nzc3OCkiIHhsaW5rOmhyZWY9IiNoIi8+PHBhdGggZmlsbD0iI2ZmZWNhOSIgc3Ryb2tlLXdpZHRoPSIzIiBzdHJva2U9IiM1ZTVlNWUiIGQ9Ik0zMjAtOTkuMzNjMCAyMi4xLTM1LjgyIDQwLTgwIDQwcy04MC0xNy45LTgwLTQwIDM1LjgyLTQwIDgwLTQwIDgwIDE3LjkgODAgNDB6Ii8+PHVzZSB0cmFuc2Zvcm09Im1hdHJpeCgxLDAsMCwxLDE2NSwtMTM0LjMzMzMzMzMzMzMzMzM3KSB0cmFuc2xhdGUoMzIuNDEyNDA3NDA3NDA3NDEgMjYuNTI3Nzc3Nzc3Nzc3NzgpIiB4bGluazpocmVmPSIjaSIvPjx1c2UgdHJhbnNmb3JtPSJtYXRyaXgoMSwwLDAsMSwxNjUsLTEzNC4zMzMzMzMzMzMzMzMzNykgdHJhbnNsYXRlKDkyLjkwNjIzNDU2NzkwMTI0IDI2LjUyNzc3Nzc3Nzc3Nzc4KSIgeGxpbms6aHJlZj0iI2oiLz48dXNlIHRyYW5zZm9ybT0ibWF0cml4KDEsMCwwLDEsMTY1LC0xMzQuMzMzMzMzMzMzMzMzMzcpIHRyYW5zbGF0ZSgyMS4zOTM4ODg4ODg4ODg4ODUgNTMuMTk0NDQ0NDQ0NDQ0NDUpIiB4bGluazpocmVmPSIjayIvPjxwYXRoIGZpbGw9IiNmZmVjYTkiIHN0cm9rZS13aWR0aD0iMyIgc3Ryb2tlPSIjNWU1ZTVlIiBkPSJNMjAwIDE3MGMwIDIyLjEtMzUuODIgNDAtODAgNDBzLTgwLTE3LjktODAtNDAgMzUuODItNDAgODAtNDAgODAgMTcuOSA4MCA0MHoiLz48dXNlIHRyYW5zZm9ybT0ibWF0cml4KDEsMCwwLDEsNDUsMTM1KSB0cmFuc2xhdGUoNTQuNjYwNDkzODI3MTYwNDk0IDM5LjY1Mjc3Nzc3Nzc3Nzc4KSIgeGxpbms6aHJlZj0iI2wiLz48cGF0aCBmaWxsPSJub25lIiBzdHJva2Utd2lkdGg9IjIiIHN0cm9rZT0iIzVlNWU1ZSIgZD0iTTkxOS4zOC01OS4wNnYxNWE2IDYgMCAwIDEtNiA2SDgyNmE2IDYgMCAwIDAtNiA2VjQ2LjVhNiA2IDAgMCAxLTYgNmgtNzQiLz48cGF0aCBmaWxsPSIjNWU1ZTVlIiBzdHJva2Utd2lkdGg9Ii4wNSIgc3Ryb2tlPSIjNWU1ZTVlIiBkPSJNOTIwLjM4LTU5Ljl2Ljg2aC0ydi0xLjE4eiIvPjxwYXRoIGZpbGw9IiM1ZTVlNWUiIHN0cm9rZS13aWR0aD0iMiIgc3Ryb2tlPSIjNWU1ZTVlIiBkPSJNNzI0Ljc0IDUyLjVMNzM5IDQ3Ljg2djkuMjd6Ii8+PHBhdGggZmlsbD0ibm9uZSIgc3Ryb2tlLXdpZHRoPSIyIiBzdHJva2U9IiM1ZTVlNWUiIGQ9Ik02MDAtNTIuNVYtMzZhNiA2IDAgMCAwIDYgNmg2MGE2IDYgMCAwIDEgNiA2VjAiLz48cGF0aCBmaWxsPSIjNWU1ZTVlIiBzdHJva2Utd2lkdGg9Ii4wNSIgc3Ryb2tlPSIjNWU1ZTVlIiBkPSJNNTk5Ljk4LTUzLjVINjAxdjEuMDNoLTJ2LTEuMDZ6Ii8+PHBhdGggZmlsbD0iIzVlNWU1ZSIgc3Ryb2tlLXdpZHRoPSIyIiBzdHJva2U9IiM1ZTVlNWUiIGQ9Ik02NzIgMTUuMjZMNjY3LjM3IDFoOS4yNnoiLz48cGF0aCBmaWxsPSJub25lIiBzdHJva2Utd2lkdGg9IjIiIHN0cm9rZT0iIzVlNWU1ZSIgZD0iTTQyMC01Mi41djI5YTYgNiAwIDAgMCA2IDZoMjA4YTYgNiAwIDAgMSA2IDZWMCIvPjxwYXRoIGZpbGw9IiM1ZTVlNWUiIHN0cm9rZS13aWR0aD0iLjA1IiBzdHJva2U9IiM1ZTVlNWUiIGQ9Ik00MTkuOTgtNTMuNUg0MjF2MS4wM2gtMnYtMS4wNnoiLz48cGF0aCBmaWxsPSIjNWU1ZTVlIiBzdHJva2Utd2lkdGg9IjIiIHN0cm9rZT0iIzVlNWU1ZSIgZD0iTTY0MCAxNS4yNkw2MzUuMzcgMWg5LjI2eiIvPjxwYXRoIGZpbGw9Im5vbmUiIHN0cm9rZS13aWR0aD0iMiIgc3Ryb2tlPSIjNWU1ZTVlIiBkPSJNMjQwLTU2LjgzVi02YTYgNiAwIDAgMCA2IDZoMzU2LjY2Ii8+PHBhdGggZmlsbD0iIzVlNWU1ZSIgc3Ryb2tlLXdpZHRoPSIuMDUiIHN0cm9rZT0iIzVlNWU1ZSIgZD0iTTIzOS45OC01Ny44M0gyNDF2MS4wMmgtMnYtMS4wNnoiLz48cGF0aCBmaWxsPSIjNWU1ZTVlIiBzdHJva2Utd2lkdGg9IjIiIHN0cm9rZT0iIzVlNWU1ZSIgZD0iTTYwMi42NyAxNS4yNkw1OTguMDMgMWg5LjI3eiIvPjxwYXRoIGZpbGw9IiNmZmVjYTkiIHN0cm9rZS13aWR0aD0iMyIgc3Ryb2tlPSIjNWU1ZTVlIiBkPSJNNzAwIDExOTAuNWMwIDIyLjEtMzUuODIgNDAtODAgNDBzLTgwLTE3LjktODAtNDAgMzUuODItNDAgODAtNDAgODAgMTcuOSA4MCA0MHoiLz48dXNlIHRyYW5zZm9ybT0ibWF0cml4KDEsMCwwLDEsNTQ1LDExNTUuNDk2OTA5MDc3NzA2NykgdHJhbnNsYXRlKDY2LjM4ODg4ODg4ODg4ODg5IDM5LjY1Mjc3Nzc3Nzc3Nzc4KSIgeGxpbms6aHJlZj0iI20iLz48cGF0aCBmaWxsPSIjZmZlY2E5IiBzdHJva2Utd2lkdGg9IjMiIHN0cm9rZT0iIzVlNWU1ZSIgZD0iTTM2MCAxMDA4LjgzYzAgMjIuMS0zNS44MiA0MC04MCA0MHMtODAtMTcuOS04MC00MCAzNS44Mi00MCA4MC00MCA4MCAxNy45IDgwIDQweiIvPjx1c2UgdHJhbnNmb3JtPSJtYXRyaXgoMSwwLDAsMSwyMDUsOTczLjgyNzYxNzczOTEyMzUpIHRyYW5zbGF0ZSgyOS40MTM1ODAyNDY5MTM1NzUgMzkuNjUyNzc3Nzc3Nzc3NzgpIiB4bGluazpocmVmPSIjbiIvPjxwYXRoIGZpbGw9IiNmZmVjYTkiIHN0cm9rZS13aWR0aD0iMyIgc3Ryb2tlPSIjNWU1ZTVlIiBkPSJNNTM1LjQzIDExOTAuNWMwIDIyLjEtMzUuOCA0MC04MCA0MC00NC4xOCAwLTgwLTE3LjktODAtNDBzMzUuODItNDAgODAtNDBjNDQuMiAwIDgwIDE3LjkgODAgNDB6Ii8+PHVzZSB0cmFuc2Zvcm09Im1hdHJpeCgxLDAsMCwxLDM4MC40MzMwNzA4NjYxNDE2MywxMTU1LjQ5NjkwOTA3NzcwNjcpIHRyYW5zbGF0ZSgyOC43MzQ1Njc5MDEyMzQ1NjMgMzkuNjUyNzc3Nzc3Nzc3NzgpIiB4bGluazpocmVmPSIjbyIvPjxwYXRoIGZpbGw9IiNmZmVjYTkiIHN0cm9rZS13aWR0aD0iMyIgc3Ryb2tlPSIjNWU1ZTVlIiBkPSJNMzYwIDExMDBjMCAyMi4xLTM1LjgyIDQwLTgwIDQwcy04MC0xNy45LTgwLTQwIDM1LjgyLTQwIDgwLTQwIDgwIDE3LjkgODAgNDB6Ii8+PHVzZSB0cmFuc2Zvcm09Im1hdHJpeCgxLDAsMCwxLDIwNSwxMDY1KSB0cmFuc2xhdGUoNDEuMDU0MzgyNzE2MDQ5MzggMjYuNTI3Nzc3Nzc3Nzc3NzgpIiB4bGluazpocmVmPSIjcCIvPjx1c2UgdHJhbnNmb3JtPSJtYXRyaXgoMSwwLDAsMSwyMDUsMTA2NSkgdHJhbnNsYXRlKDg0LjI2NDI1OTI1OTI1OTI2IDI2LjUyNzc3Nzc3Nzc3Nzc4KSIgeGxpbms6aHJlZj0iI2oiLz48dXNlIHRyYW5zZm9ybT0ibWF0cml4KDEsMCwwLDEsMjA1LDEwNjUpIHRyYW5zbGF0ZSgyMS4zOTM4ODg4ODg4ODg4NzggNTMuMTk0NDQ0NDQ0NDQ0NDUpIiB4bGluazpocmVmPSIjcSIvPjxwYXRoIGZpbGw9Im5vbmUiIHN0cm9rZS13aWR0aD0iMiIgc3Ryb2tlPSIjNWU1ZTVlIiBkPSJNNDU1LjQzIDExNDh2LTJhNiA2IDAgMCAxIDYtNmg0NC42MmE2IDYgMCAwIDAgNi02di0yNy41YTYgNiAwIDAgMSA2LTZoNDQuNjJhNiA2IDAgMCAwIDYtNnYtMTA1Ii8+PHBhdGggZmlsbD0iIzVlNWU1ZSIgc3Ryb2tlLXdpZHRoPSIuMDUiIHN0cm9rZT0iIzVlNWU1ZSIgZD0iTTQ1Ni40MyAxMTQ5LjAzbC0uOTgtLjAzaC0xLjAydi0xLjAzaDJ6Ii8+PHBhdGggZmlsbD0iIzVlNWU1ZSIgc3Ryb2tlLXdpZHRoPSIyIiBzdHJva2U9IiM1ZTVlNWUiIGQ9Ik01NjguNjcgOTc0LjI0bDQuNjMgMTQuMjZoLTkuMjd6Ii8+PHBhdGggZmlsbD0iI2ZmOGY4ZiIgc3Ryb2tlLXdpZHRoPSIzIiBzdHJva2U9IiM1ZTVlNWUiIGQ9Ik02MzUuMiA0NjguNmE4IDggMCAwIDEgOS42IDBsNzAuNCA1Mi44YTQuNSA0LjUgMCAwIDEgMCA3LjJsLTcwLjQgNTIuOGE4IDggMCAwIDEtOS42IDBsLTcwLjQtNTIuOGE0LjUgNC41IDAgMCAxIDAtNy4yeiIvPjx1c2UgdHJhbnNmb3JtPSJtYXRyaXgoMSwwLDAsMSw1NjUsNDcwKSB0cmFuc2xhdGUoMzguMDI5NjkxMzU4MDI0Njg1IDU5LjAyNzc3Nzc3Nzc3Nzc4KSIgeGxpbms6aHJlZj0iI3IiLz48cGF0aCBmaWxsPSJub25lIiBzdHJva2Utd2lkdGg9IjIiIHN0cm9rZT0iIzMzMyIgZD0iTTY0MCAxNDIuNVY0NDciLz48cGF0aCBmaWxsPSIjMzMzIiBzdHJva2Utd2lkdGg9Ii4wNSIgc3Ryb2tlPSIjMzMzIiBkPSJNNjQxIDE0Mi41M2gtMnYtMS4wM2gyeiIvPjxwYXRoIGZpbGw9IiMzMzMiIHN0cm9rZS13aWR0aD0iMiIgc3Ryb2tlPSIjMzMzIiBkPSJNNjQwIDQ2Mi4yNkw2MzUuMzcgNDQ4aDkuMjZ6Ii8+PHBhdGggZmlsbD0iIzMzMyIgc3Ryb2tlLXdpZHRoPSIuMDUiIHN0cm9rZT0iIzMzMyIgZD0iTTY0MSA4MjkuNWgtMlY3MjYuOTJoMnptMC0xMjMuOWgtMlY1ODUuNWgyeiIvPjxwYXRoIGZpbGw9IiMzMzMiIGQ9Ik02NDAgNTg0LjVsMS0uMDZ2MS4xaC0ydi0xLjF6Ii8+PHBhdGggZmlsbD0iIzMzMyIgc3Ryb2tlLXdpZHRoPSIuMDUiIHN0cm9rZT0iIzMzMyIgZD0iTTY0MCA1ODQuNDhsMS4wMi0uMDd2MS4xNUg2Mzl2LTEuMTR6bS0uOTggMS4wMkg2NDF2LTEuMDNsLS45OC4wNi0uOTgtLjA2eiIvPjxwYXRoIGZpbGw9IiMzMzMiIGQ9Ik02NDAgODQ0Ljc3bC00LjYzLTE0LjI3aDkuMjZ6Ii8+PHBhdGggZmlsbD0iIzMzMyIgc3Ryb2tlLXdpZHRoPSIuMDUiIHN0cm9rZT0iIzMzMyIgZD0iTTY0MCA4NDhsLTYtMTguNWgxMnptLTMuMjYtMTYuNWwzLjI2IDEwLjAzIDMuMjYtMTAuMDN6Ii8+PHVzZSB0cmFuc2Zvcm09Im1hdHJpeCgxLDAsMCwxLDYzNy41MzA4NjQxOTc1MzA4LDcwNS41ODY0NDkyNTU2MjY1KSB0cmFuc2xhdGUoMC4wMDQ5OTk5OTk5OTk5OTk4OTMgMTQuMjIyMjIyMjIyMjIyMjIzKSIgeGxpbms6aHJlZj0iI3MiLz48cGF0aCBmaWxsPSIjZmZlY2E5IiBzdHJva2Utd2lkdGg9IjMiIHN0cm9rZT0iIzVlNWU1ZSIgZD0iTTI2MCA0NDBjMCAyMi4xLTM1LjgyIDQwLTgwIDQwcy04MC0xNy45LTgwLTQwIDM1LjgyLTQwIDgwLTQwIDgwIDE3LjkgODAgNDB6Ii8+PHVzZSB0cmFuc2Zvcm09Im1hdHJpeCgxLDAsMCwxLDEwNSw0MDUpIHRyYW5zbGF0ZSg2Ni4zODg4ODg4ODg4ODg4OSAzOS42NTI3Nzc3Nzc3Nzc3OCkiIHhsaW5rOmhyZWY9IiNtIi8+PHBhdGggZmlsbD0iI2ZmZWNhOSIgc3Ryb2tlLXdpZHRoPSIzIiBzdHJva2U9IiM1ZTVlNWUiIGQ9Ik0yNjAgNTI1YzAgMjIuMS0zNS44MiA0MC04MCA0MHMtODAtMTcuOS04MC00MCAzNS44Mi00MCA4MC00MCA4MCAxNy45IDgwIDQweiIvPjx1c2UgdHJhbnNmb3JtPSJtYXRyaXgoMSwwLDAsMSwxMDUsNDkwKSB0cmFuc2xhdGUoMzUuNTI0NjkxMzU4MDI0NyAzOS42NTI3Nzc3Nzc3Nzc3OCkiIHhsaW5rOmhyZWY9IiN0Ii8+PHBhdGggZmlsbD0iI2ZmZWNhOSIgc3Ryb2tlLXdpZHRoPSIzIiBzdHJva2U9IiM1ZTVlNWUiIGQ9Ik0yNjAgNjEwYzAgMjIuMS0zNS44MiA0MC04MCA0MHMtODAtMTcuOS04MC00MCAzNS44Mi00MCA4MC00MCA4MCAxNy45IDgwIDQweiIvPjx1c2UgdHJhbnNmb3JtPSJtYXRyaXgoMSwwLDAsMSwxMDUsNTc1KSB0cmFuc2xhdGUoOS4wNzQwNzQwNzQwNzQwNzYgMzkuNjUyNzc3Nzc3Nzc3NzgpIiB4bGluazpocmVmPSIjaSIvPjx1c2UgdHJhbnNmb3JtPSJtYXRyaXgoMSwwLDAsMSwxMDUsNTc1KSB0cmFuc2xhdGUoNjkuNTY3OTAxMjM0NTY3OSAzOS42NTI3Nzc3Nzc3Nzc3OCkiIHhsaW5rOmhyZWY9IiN1Ii8+PHBhdGggZmlsbD0iI2ZmZWNhOSIgc3Ryb2tlLXdpZHRoPSIzIiBzdHJva2U9IiM1ZTVlNWUiIGQ9Ik0yNjAgMzUwYzAgMjIuMS0zNS44MiA0MC04MCA0MHMtODAtMTcuOS04MC00MCAzNS44Mi00MCA4MC00MCA4MCAxNy45IDgwIDQweiIvPjx1c2UgdHJhbnNmb3JtPSJtYXRyaXgoMSwwLDAsMSwxMDUsMzE1KSB0cmFuc2xhdGUoMjEuOTgwMzA4NjQxOTc1MzEzIDI2LjUyNzc3Nzc3Nzc3Nzc4KSIgeGxpbms6aHJlZj0iI3YiLz48dXNlIHRyYW5zZm9ybT0ibWF0cml4KDEsMCwwLDEsMTA1LDMxNSkgdHJhbnNsYXRlKDEwMy4zMzgzMzMzMzMzMzMzNCAyNi41Mjc3Nzc3Nzc3Nzc3OCkiIHhsaW5rOmhyZWY9IiN3Ii8+PHVzZSB0cmFuc2Zvcm09Im1hdHJpeCgxLDAsMCwxLDEwNSwzMTUpIHRyYW5zbGF0ZSg0Mi45Njc5NjI5NjI5NjI5NiA1My4xOTQ0NDQ0NDQ0NDQ0NSkiIHhsaW5rOmhyZWY9IiN4Ii8+PHBhdGggZmlsbD0iI2ZmZWNhOSIgc3Ryb2tlLXdpZHRoPSIzIiBzdHJva2U9IiM1ZTVlNWUiIGQ9Ik0yNjAgNjk1YzAgMjIuMS0zNS44MiA0MC04MCA0MHMtODAtMTcuOS04MC00MCAzNS44Mi00MCA4MC00MCA4MCAxNy45IDgwIDQweiIvPjx1c2UgdHJhbnNmb3JtPSJtYXRyaXgoMSwwLDAsMSwxMDUsNjYwKSB0cmFuc2xhdGUoMjQuNTA2MTcyODM5NTA2MTc4IDM5LjY1Mjc3Nzc3Nzc3Nzc4KSIgeGxpbms6aHJlZj0iI3kiLz48dXNlIHRyYW5zZm9ybT0ibWF0cml4KDEsMCwwLDEsMTA1LDY2MCkgdHJhbnNsYXRlKDc1LjA2MTcyODM5NTA2MTczIDM5LjY1Mjc3Nzc3Nzc3Nzc4KSIgeGxpbms6aHJlZj0iI3oiLz48cGF0aCBmaWxsPSIjZmZlY2E5IiBzdHJva2Utd2lkdGg9IjMiIHN0cm9rZT0iIzVlNWU1ZSIgZD0iTTI2MCA3ODBjMCAyMi4xLTM1LjgyIDQwLTgwIDQwcy04MC0xNy45LTgwLTQwIDM1LjgyLTQwIDgwLTQwIDgwIDE3LjkgODAgNDB6Ii8+PHVzZSB0cmFuc2Zvcm09Im1hdHJpeCgxLDAsMCwxLDEwNSw3NDUpIHRyYW5zbGF0ZSgzOC4wMjQ2OTEzNTgwMjQ2OSAzOS42NTI3Nzc3Nzc3Nzc3OCkiIHhsaW5rOmhyZWY9IiN5Ii8+PHVzZSB0cmFuc2Zvcm09Im1hdHJpeCgxLDAsMCwxLDEwNSw3NDUpIHRyYW5zbGF0ZSg4OC41ODAyNDY5MTM1ODAyNSAzOS42NTI3Nzc3Nzc3Nzc3OCkiIHhsaW5rOmhyZWY9IiNBIi8+PHBhdGggZmlsbD0iI2ZmZWNhOSIgc3Ryb2tlLXdpZHRoPSIzIiBzdHJva2U9IiM1ZTVlNWUiIGQ9Ik0yNjAgODY1YzAgMjIuMS0zNS44MiA0MC04MCA0MHMtODAtMTcuOS04MC00MCAzNS44Mi00MCA4MC00MCA4MCAxNy45IDgwIDQweiIvPjx1c2UgdHJhbnNmb3JtPSJtYXRyaXgoMSwwLDAsMSwxMDUsODMwKSB0cmFuc2xhdGUoMjEuOTgwMzA4NjQxOTc1MzEzIDI2LjUyNzc3Nzc3Nzc3Nzc4KSIgeGxpbms6aHJlZj0iI3YiLz48dXNlIHRyYW5zZm9ybT0ibWF0cml4KDEsMCwwLDEsMTA1LDgzMCkgdHJhbnNsYXRlKDEwMy4zMzgzMzMzMzMzMzMzNCAyNi41Mjc3Nzc3Nzc3Nzc3OCkiIHhsaW5rOmhyZWY9IiN3Ii8+PHVzZSB0cmFuc2Zvcm09Im1hdHJpeCgxLDAsMCwxLDEwNSw4MzApIHRyYW5zbGF0ZSgzMy42Nzc4Mzk1MDYxNzI4MyA1My4xOTQ0NDQ0NDQ0NDQ0NSkiIHhsaW5rOmhyZWY9IiNCIi8+PHBhdGggZmlsbD0ibm9uZSIgc3Ryb2tlLXdpZHRoPSIyIiBzdHJva2U9IiM1ZTVlNWUiIGQ9Ik0yNjAuMzQgMzQwLjQySDQyNGE2IDYgMCAwIDEgNiA2VjQyNGE2IDYgMCAwIDAgNiA2aDE3Mi42NWE2IDYgMCAwIDEgNiA2djI3LjY0Ii8+PHBhdGggZmlsbD0iIzVlNWU1ZSIgc3Ryb2tlLXdpZHRoPSIuMDUiIHN0cm9rZT0iIzVlNWU1ZSIgZD0iTTI2MC4zNyAzNDEuNDJoLS42bC0uNi0xLjQtLjMyLS42aDEuNXoiLz48cGF0aCBmaWxsPSIjNWU1ZTVlIiBzdHJva2Utd2lkdGg9IjIiIHN0cm9rZT0iIzVlNWU1ZSIgZD0iTTYxNC42NSA0NzguOUw2MTAgNDY0LjY0aDkuMjh6Ii8+PHBhdGggZmlsbD0ibm9uZSIgc3Ryb2tlLXdpZHRoPSIyIiBzdHJva2U9IiM1ZTVlNWUiIGQ9Ik0yNjIuNSA0NDBINDI0YTYgNiAwIDAgMSA2IDZ2MzUuMTRhNiA2IDAgMCAwIDYgNmgxNTEuMTQiLz48cGF0aCBmaWxsPSIjNWU1ZTVlIiBzdHJva2Utd2lkdGg9Ii4wNSIgc3Ryb2tlPSIjNWU1ZTVlIiBkPSJNMjYyLjUzIDQ0MWgtMS4wNmwuMDMtLjk4di0uMjJsLS4wMy0uOGgxLjA2eiIvPjxwYXRoIGZpbGw9IiM1ZTVlNWUiIHN0cm9rZS13aWR0aD0iMiIgc3Ryb2tlPSIjNWU1ZTVlIiBkPSJNNTk1Ljg4IDQ5Mi40NmwtMTQuNi0zLjQ2IDQuODMtNy45MnoiLz48cGF0aCBmaWxsPSJub25lIiBzdHJva2Utd2lkdGg9IjIiIHN0cm9rZT0iIzVlNWU1ZSIgZD0iTTI1MS41NiA1MDR2LTMzYTYgNiAwIDAgMSA2LTZoMTAzLjIyYTYgNiAwIDAgMSA2IDZ2MjhhNiA2IDAgMCAwIDYgNkg1NjUuMSIvPjxwYXRoIGZpbGw9IiM1ZTVlNWUiIHN0cm9rZS13aWR0aD0iLjA1IiBzdHJva2U9IiM1ZTVlNWUiIGQ9Ik0yNTIuNTYgNTA2bC0xLTEtMS0uODZWNTA0aDJ6Ii8+PHBhdGggZmlsbD0iIzVlNWU1ZSIgc3Ryb2tlLXdpZHRoPSIyIiBzdHJva2U9IiM1ZTVlNWUiIGQ9Ik01NzguOCA1MDYuM2wtMTQuNjUgMy4yOC44Ny05LjIzeiIvPjxwYXRoIGZpbGw9Im5vbmUiIHN0cm9rZS13aWR0aD0iMiIgc3Ryb2tlPSIjNWU1ZTVlIiBkPSJNMjYyLjUgNjEwaDMwMS44M2E2IDYgMCAwIDAgNi02di01MC44OCIvPjxwYXRoIGZpbGw9IiM1ZTVlNWUiIHN0cm9rZS13aWR0aD0iLjA1IiBzdHJva2U9IiM1ZTVlNWUiIGQ9Ik0yNjIuNTMgNjExaC0xLjA2bC4wMy0uOTh2LS4yMmwtLjAzLS44aDEuMDZ6Ii8+PHBhdGggZmlsbD0iIzVlNWU1ZSIgc3Ryb2tlLXdpZHRoPSIyIiBzdHJva2U9IiM1ZTVlNWUiIGQ9Ik01NzAuMzMgNTM3Ljg2bDQuNjMgMTQuMjZoLTkuMjd6Ii8+PHBhdGggZmlsbD0iIzVlNWU1ZSIgc3Ryb2tlLXdpZHRoPSIuMDUiIHN0cm9rZT0iIzVlNWU1ZSIgZD0iTTYxMi4zIDY0NC4wNGwtLjEgMS4wNi0uMjUgMS4wNi0uNDIgMS4wMi0uNTguOTQtLjcuODMtLjg1LjcyLS45My41Ny0xLjAyLjQyLTEuMDcuMjYtMS4wNS4wOGgtMjAxLjlsLS44Mi4wNy0uNzUuMTgtLjczLjMtLjY2LjQtLjYuNTItLjUuNi0uNDIuNjYtLjMuNzMtLjE4Ljc2LS4wNy44MnY0OGwtLjEgMS4wNi0uMjUgMS4wNi0uNDIgMS4wMi0uNTcuOTQtLjcuODMtLjg1LjcyLS45My41Ny0xIC40Mi0xLjA4LjI2LTEuMDcuMDhoLTEwMS45bC0uOC4wNy0uNzcuMTgtLjczLjMtLjY3LjQtLjYuNTItLjUuNi0uNC42Ni0uMy43My0uMi43Ni0uMDYuODJ2NThsLS4wOCAxLjA2LS4yNiAxLjA2LS40MiAxLjAyLS41Ny45NC0uNzIuODMtLjgzLjcyLS45NC41Ny0xLjAyLjQyLTEuMDYuMjYtMS4wNi4wOEgyNjIuNXYtMmgxNC45NmwuODItLjA3Ljc2LS4xOC43My0uMy42Ny0uNC42LS41Mi41LS42LjQtLjY2LjMtLjczLjItLjc2LjA2LS44MnYtNThsLjA4LTEuMDYuMjYtMS4wNi40Mi0xLjAyLjU3LS45NC43Mi0uODMuODMtLjcyLjk0LS41NyAxLjAyLS40MiAxLjA2LS4yNiAxLjA2LS4wOGgxMDEuOWwuOC0uMDcuNzgtLjE4LjcyLS4zLjY3LS40LjYtLjUyLjUtLjYuNDItLjY2LjMtLjczLjE4LS43Ni4wNi0uODJ2LTQ4bC4wOC0xLjA2LjI1LTEuMDYuNDItMS4wMi41OC0uOTQuNy0uODMuODUtLjcyLjkzLS41NyAxLjAzLS40MiAxLjA3LS4yNiAxLjA1LS4wOGgyMDEuOWwuODItLjA3Ljc2LS4xOC43Mi0uMy42Ny0uNC42LS41Mi41LS42LjQyLS42Ni4zLS43My4xOC0uNzYuMDctLjgydi02MC4xMmgyeiIvPjxwYXRoIGZpbGw9IiM1ZTVlNWUiIGQ9Ik0yNjIuNTMgNzgxaC0xLjA2bC4wMy0uOTh2LS4yMmwtLjAzLS44aDEuMDZ6Ii8+PHBhdGggZmlsbD0iIzVlNWU1ZSIgc3Ryb2tlLXdpZHRoPSIuMDUiIHN0cm9rZT0iIzVlNWU1ZSIgZD0iTTI2Mi41NSA3ODEuMDJoLTEuMWwuMDMtMXYtLjIybC0uMDQtLjgyaDEuMXptLTEuMDYtMmwuMDIuNzh2LjIybC0uMDIuOTZoMVY3Nzl6Ii8+PHBhdGggZmlsbD0iIzVlNWU1ZSIgZD0iTTYxNS45MiA1ODIuODRoLTkuMjdsNC42NC0xNC4yNnoiLz48cGF0aCBmaWxsPSIjNWU1ZTVlIiBzdHJva2Utd2lkdGg9Ii4wNSIgc3Ryb2tlPSIjNWU1ZTVlIiBkPSJNNjE3LjMgNTgzLjg0aC0xMi4wM2w2LjAyLTE4LjV6bS05LjI3LTJoNi41bC0zLjI0LTEwLjAzeiIvPjxwYXRoIGZpbGw9Im5vbmUiIHN0cm9rZS13aWR0aD0iMiIgc3Ryb2tlPSIjNWU1ZTVlIiBkPSJNMjYyLjUgNjk1aDE1YTYgNiAwIDAgMCA2LTZ2LTNhNiA2IDAgMCAxIDYtNkgzNjRhNiA2IDAgMCAwIDYtNnYtMzhhNiA2IDAgMCAxIDYtNmgyMDguOGE2IDYgMCAwIDAgNi02di01NS41MiIvPjxwYXRoIGZpbGw9IiM1ZTVlNWUiIHN0cm9rZS13aWR0aD0iLjA1IiBzdHJva2U9IiM1ZTVlNWUiIGQ9Ik0yNjIuNTMgNjk2aC0xLjA2bC4wMy0uOTh2LS4yMmwtLjAzLS44aDEuMDZ6Ii8+PHBhdGggZmlsbD0iIzVlNWU1ZSIgc3Ryb2tlLXdpZHRoPSIyIiBzdHJva2U9IiM1ZTVlNWUiIGQ9Ik01OTAuOCA1NTMuMjJsNC42NCAxNC4yNmgtOS4yN3oiLz48cGF0aCBmaWxsPSIjNWU1ZTVlIiBzdHJva2Utd2lkdGg9Ii4wNSIgc3Ryb2tlPSIjNWU1ZTVlIiBkPSJNNjI0LjI0IDY4OC43bC0uMSAxLjA1LS4yNCAxLjA3LS40MiAxLS41OC45NS0uNy44My0uODUuNzItLjk0LjU3LTEgLjQtMS4wNy4yNy0xLjA2LjA4SDQxNi4wNGwtLjgyLjA3LS43Ni4xOC0uNzMuMy0uNjcuNC0uNi41Mi0uNS42LS40LjY2LS4zLjczLS4yLjc3LS4wNi44MnY5My4zNGwtLjA4IDEuMDYtLjI2IDEuMDYtLjQyIDEuMDItLjU3Ljk0LS43Mi44My0uODMuNzItLjk0LjU3LTEuMDIuNDItMS4wNi4yNi0xLjA2LjA4aC0xMTcuNGwtLjgyLjA3LS43Ni4xOC0uNzMuMy0uNjYuNC0uNi41Mi0uNS42LS40Mi42Ni0uMy43My0uMTguNzYtLjA3LjgydjQxLjkzbC0uMDggMS4wNi0uMjYgMS4wNy0uNDIgMS0uNTcuOTUtLjcuODQtLjg1LjctLjk0LjU3LTEgLjQyLTEuMDguMjUtMS4wNi4wOEgyNTkuNnYtMmgxNC45NmwuODItLjA2Ljc3LS4xOC43Mi0uMy42Ny0uNDIuNi0uNS41LS42LjQyLS42OC4zLS43Mi4xOC0uNzYuMDYtLjgzdi00MS45NGwuMS0xLjA2LjI0LTEuMDYuNDItMS4wMi41OC0uOTQuNy0uODMuODUtLjcyLjkyLS41NyAxLjAyLS40MiAxLjA3LS4yNiAxLjA2LS4wOGgxMTcuNGwuODItLjA3Ljc2LS4xOC43My0uMy42Ny0uNC42LS41Mi41LS42LjQtLjY2LjMtLjczLjItLjc2LjA2LS44MlY3MDAuNmwuMDgtMS4wNS4yNi0xLjA2LjQyLTEuMDMuNTctLjk0LjcyLS44My44My0uNzIuOTQtLjU3IDEuMDItLjQgMS4wNi0uMjcgMS4wNi0uMDhINjE3LjJsLjgyLS4wNi43Ni0uMi43Mi0uMy42Ny0uNC42LS41Mi41LS42LjQyLS42Ni4zLS43Mi4xNy0uNzcuMDctLjgydi05NS44aDJ6Ii8+PHBhdGggZmlsbD0iIzVlNWU1ZSIgZD0iTTI1OS42MyA4NTQuOTNoLS41bC0uNzUtMS40Mi0uMzQtLjU3aDEuNnoiLz48cGF0aCBmaWxsPSIjNWU1ZTVlIiBzdHJva2Utd2lkdGg9Ii4wNSIgc3Ryb2tlPSIjNWU1ZTVlIiBkPSJNMjU5LjY1IDg1NC45NmgtLjU0bC0uNzQtMS40NC0uMzctLjZoMS42NXptLTEuNTctMmwuMzMuNTQuNzQgMS40aC40NnYtMS45NHoiLz48cGF0aCBmaWxsPSIjNWU1ZTVlIiBkPSJNNjI3Ljg3IDU5MS44aC05LjI3bDQuNjQtMTQuMjZ6Ii8+PHBhdGggZmlsbD0iIzVlNWU1ZSIgc3Ryb2tlLXdpZHRoPSIuMDUiIHN0cm9rZT0iIzVlNWU1ZSIgZD0iTTYyOS4yNSA1OTIuOGgtMTIuMDNsNi4wMi0xOC41em0tOS4yNy0yaDYuNWwtMy4yNC0xMC4wM3oiLz48cGF0aCBmaWxsPSIjZmZlY2E5IiBzdHJva2Utd2lkdGg9IjMiIHN0cm9rZT0iIzVlNWU1ZSIgZD0iTTM2MCAxMTkwLjVjMCAyMi4xLTM1LjgyIDQwLTgwIDQwcy04MC0xNy45LTgwLTQwIDM1LjgyLTQwIDgwLTQwIDgwIDE3LjkgODAgNDB6Ii8+PHVzZSB0cmFuc2Zvcm09Im1hdHJpeCgxLDAsMCwxLDIwNSwxMTU1LjQ5NjkwOTA3NzcwNjcpIHRyYW5zbGF0ZSgzOC42NDE5NzUzMDg2NDE5NzUgMzkuNjUyNzc3Nzc3Nzc3NzgpIiB4bGluazpocmVmPSIjQyIvPjxwYXRoIGZpbGw9Im5vbmUiIHN0cm9rZS13aWR0aD0iMiIgc3Ryb2tlPSIjNWU1ZTVlIiBkPSJNMzI4Ljc4IDExNTYuMjJ2LS4yMmE2IDYgMCAwIDEgNi02aDcxLjc2YTYgNiAwIDAgMCA2LTZ2LTU4YTYgNiAwIDAgMSA2LTZINDg0YTYgNiAwIDAgMCA2LTZWOTU2LjE3YTYgNiAwIDAgMSA2LTZoNDQiLz48cGF0aCBmaWxsPSIjNWU1ZTVlIiBzdHJva2Utd2lkdGg9Ii4wNSIgc3Ryb2tlPSIjNWU1ZTVlIiBkPSJNMzI5Ljc4IDExNTcuNThsLTItLjcydi0uNjdoMnoiLz48cGF0aCBmaWxsPSIjNWU1ZTVlIiBzdHJva2Utd2lkdGg9IjIiIHN0cm9rZT0iIzVlNWU1ZSIgZD0iTTU1NS4yNiA5NTAuMTdMNTQxIDk1NC44di05LjI2eiIvPjxwYXRoIGZpbGw9Im5vbmUiIHN0cm9rZS13aWR0aD0iMiIgc3Ryb2tlPSIjNWU1ZTVlIiBkPSJNMzYyLjUgMTEwMGgxNWE2IDYgMCAwIDAgNi02di0zOGE2IDYgMCAwIDEgNi02SDQ1NGE2IDYgMCAwIDAgNi02VjkxNS41YTYgNiAwIDAgMSA2LTZoNzQiLz48cGF0aCBmaWxsPSIjNWU1ZTVlIiBzdHJva2Utd2lkdGg9Ii4wNSIgc3Ryb2tlPSIjNWU1ZTVlIiBkPSJNMzYyLjUzIDExMDFoLTEuMDZsLjAzLS45OHYtLjIybC0uMDMtLjhoMS4wNnoiLz48cGF0aCBmaWxsPSIjNWU1ZTVlIiBzdHJva2Utd2lkdGg9IjIiIHN0cm9rZT0iIzVlNWU1ZSIgZD0iTTU1NS4yNiA5MDkuNUw1NDEgOTE0LjE0di05LjI3eiIvPjxwYXRoIGZpbGw9IiNiOGY1ZWQiIHN0cm9rZS13aWR0aD0iMyIgc3Ryb2tlPSIjNWU1ZTVlIiBkPSJNMTEwMS4zMyA4NmE2IDYgMCAwIDEgNi02aDE0OGE2IDYgMCAwIDEgNiA2djEwOGE2IDYgMCAwIDEtNiA2aC0xNDhhNiA2IDAgMCAxLTYtNnoiLz48dXNlIHRyYW5zZm9ybT0ibWF0cml4KDEsMCwwLDEsMTExMy4zMzMzMzMzMzMzMzMsOTIpIHRyYW5zbGF0ZSgyMi4zODI3MTYwNDkzODI3MDggNTMuNzc3Nzc3Nzc3Nzc3NzgpIiB4bGluazpocmVmPSIjRCIvPjxwYXRoIGZpbGw9IiNiOGY1ZWQiIHN0cm9rZS13aWR0aD0iMyIgc3Ryb2tlPSIjNWU1ZTVlIiBkPSJNMTA4MCA5NjZhNiA2IDAgMCAxIDYtNmgxNDhhNiA2IDAgMCAxIDYgNnYxMDhhNiA2IDAgMCAxLTYgNmgtMTQ4YTYgNiAwIDAgMS02LTZ6Ii8+PHVzZSB0cmFuc2Zvcm09Im1hdHJpeCgxLDAsMCwxLDEwOTIsOTcyKSB0cmFuc2xhdGUoMzcuMTk3NTMwODY0MTk3NTMgNTMuNzc3Nzc3Nzc3Nzc3NzgpIiB4bGluazpocmVmPSIjRSIvPjxwYXRoIGZpbGw9IiNiOGY1ZWQiIHN0cm9rZS13aWR0aD0iMyIgc3Ryb2tlPSIjNWU1ZTVlIiBkPSJNMTA4MCA1NzUuNWE2IDYgMCAwIDEgNi02aDE0OGE2IDYgMCAwIDEgNiA2djEwOGE2IDYgMCAwIDEtNiA2aC0xNDhhNiA2IDAgMCAxLTYtNnoiLz48dXNlIHRyYW5zZm9ybT0ibWF0cml4KDEsMCwwLDEsMTA5Miw1ODEuNTAzMDkwOTIyMjkzMykgdHJhbnNsYXRlKDMxLjY0MTk3NTMwODY0MTk3NSA1My43Nzc3Nzc3Nzc3Nzc3OCkiIHhsaW5rOmhyZWY9IiNGIi8+PHBhdGggZmlsbD0iI2ZmZWNhOSIgc3Ryb2tlLXdpZHRoPSIzIiBzdHJva2U9IiM1ZTVlNWUiIGQ9Ik0xNDgxLjMzIDgwYzAgMjIuMS0zNS44IDQwLTgwIDQwLTQ0LjE4IDAtODAtMTcuOS04MC00MHMzNS44Mi00MCA4MC00MGM0NC4yIDAgODAgMTcuOSA4MCA0MHoiLz48dXNlIHRyYW5zZm9ybT0ibWF0cml4KDEsMCwwLDEsMTMyNi4zMzMzMzMzMzMzMzMsNDUpIHRyYW5zbGF0ZSg2Ni4zODg4ODg4ODg4ODg4OSAzOS42NTI3Nzc3Nzc3Nzc3OCkiIHhsaW5rOmhyZWY9IiNtIi8+PHBhdGggZmlsbD0iI2ZmZWNhOSIgc3Ryb2tlLXdpZHRoPSIzIiBzdHJva2U9IiM1ZTVlNWUiIGQ9Ik0xNDgxLjMzIDE3MC44NGMwIDIyLjEtMzUuOCA0MC04MCA0MC00NC4xOCAwLTgwLTE3LjktODAtNDBzMzUuODItNDAgODAtNDBjNDQuMiAwIDgwIDE3LjkgODAgNDB6Ii8+PHVzZSB0cmFuc2Zvcm09Im1hdHJpeCgxLDAsMCwxLDEzMjYuMzMzMzMzMzMzMzMzLDEzNS44MzQ2NDU2NjkyOTE2KSB0cmFuc2xhdGUoMzcuNDA3NDA3NDA3NDA3NDEgMzkuNjUyNzc3Nzc3Nzc3NzgpIiB4bGluazpocmVmPSIjYyIvPjxwYXRoIGZpbGw9IiNmZmVjYTkiIHN0cm9rZS13aWR0aD0iMyIgc3Ryb2tlPSIjNWU1ZTVlIiBkPSJNMTE1MC42NyAxMTYwYzAgMjIuMS0zNS44MiA0MC04MCA0MC00NC4yIDAtODAtMTcuOS04MC00MHMzNS44LTQwIDgwLTQwYzQ0LjE4IDAgODAgMTcuOSA4MCA0MHoiLz48dXNlIHRyYW5zZm9ybT0ibWF0cml4KDEsMCwwLDEsOTk1LjY2NjY2NjY2NjY2NjUsMTEyNSkgdHJhbnNsYXRlKDY2LjM4ODg4ODg4ODg4ODg5IDM5LjY1Mjc3Nzc3Nzc3Nzc4KSIgeGxpbms6aHJlZj0iI20iLz48cGF0aCBmaWxsPSIjZmZlY2E5IiBzdHJva2Utd2lkdGg9IjMiIHN0cm9rZT0iIzVlNWU1ZSIgZD0iTTEzMzIgMTE2MS42N2MwIDIyLjEtMzUuODIgNDAtODAgNDBzLTgwLTE3LjktODAtNDAgMzUuODItNDAgODAtNDAgODAgMTcuOSA4MCA0MHoiLz48dXNlIHRyYW5zZm9ybT0ibWF0cml4KDEsMCwwLDEsMTE3Ni45OTk5OTk5OTk5OTk1LDExMjYuNjY5MjkxMzM4NTgzMikgdHJhbnNsYXRlKDM3LjQwNzQwNzQwNzQwNzQxIDM5LjY1Mjc3Nzc3Nzc3Nzc4KSIgeGxpbms6aHJlZj0iI2MiLz48cGF0aCBmaWxsPSIjZmZlY2E5IiBzdHJva2Utd2lkdGg9IjMiIHN0cm9rZT0iIzVlNWU1ZSIgZD0iTTE0ODAgNTIwYzAgMjIuMS0zNS44MiA0MC04MCA0MHMtODAtMTcuOS04MC00MCAzNS44Mi00MCA4MC00MCA4MCAxNy45IDgwIDQweiIvPjx1c2UgdHJhbnNmb3JtPSJtYXRyaXgoMSwwLDAsMSwxMzI1LDQ4NSkgdHJhbnNsYXRlKDY2LjM4ODg4ODg4ODg4ODg5IDM5LjY1Mjc3Nzc3Nzc3Nzc4KSIgeGxpbms6aHJlZj0iI20iLz48cGF0aCBmaWxsPSIjZmZlY2E5IiBzdHJva2Utd2lkdGg9IjMiIHN0cm9rZT0iIzVlNWU1ZSIgZD0iTTE0ODAgNjEwLjg0YzAgMjIuMS0zNS44MiA0MC04MCA0MHMtODAtMTcuOS04MC00MCAzNS44Mi00MCA4MC00MCA4MCAxNy45IDgwIDQweiIvPjx1c2UgdHJhbnNmb3JtPSJtYXRyaXgoMSwwLDAsMSwxMzI1LDU3NS44MzQ2NDU2NjkyOTE2KSB0cmFuc2xhdGUoMzcuNDA3NDA3NDA3NDA3NDEgMzkuNjUyNzc3Nzc3Nzc3NzgpIiB4bGluazpocmVmPSIjYyIvPjxwYXRoIGZpbGw9IiNmZmVjYTkiIHN0cm9rZS13aWR0aD0iMyIgc3Ryb2tlPSIjNWU1ZTVlIiBkPSJNMTQ4MCA3MDEuNjdjMCAyMi4xLTM1LjgyIDQwLTgwIDQwcy04MC0xNy45LTgwLTQwIDM1LjgyLTQwIDgwLTQwIDgwIDE3LjkgODAgNDB6Ii8+PHVzZSB0cmFuc2Zvcm09Im1hdHJpeCgxLDAsMCwxLDEzMjUsNjY2LjY2OTI5MTMzODU4MzIpIHRyYW5zbGF0ZSg0NC4xOTc1MzA4NjQxOTc1MyAzOS42NTI3Nzc3Nzc3Nzc3OCkiIHhsaW5rOmhyZWY9IiNHIi8+PHBhdGggZmlsbD0iI2ZmOGY4ZiIgc3Ryb2tlLXdpZHRoPSIzIiBzdHJva2U9IiM1ZTVlNWUiIGQ9Ik04OTUuMiAyMDUuMDJhOCA4IDAgMCAxIDkuNiAwbDcwLjQgNTIuOGE0LjUgNC41IDAgMCAxIDAgNy4ybC03MC40IDUyLjhhOCA4IDAgMCAxLTkuNiAwbC03MC40LTUyLjhhNC41IDQuNSAwIDAgMSAwLTcuMnoiLz48dXNlIHRyYW5zZm9ybT0ibWF0cml4KDEsMCwwLDEsODI1LDIwNi40MTczMjI4MzQ2NDU1NykgdHJhbnNsYXRlKDE3LjA3MjkwMTIzNDU2NzkgNTkuMDI3Nzc3Nzc3Nzc3NzgpIiB4bGluazpocmVmPSIjSCIvPjx1c2UgdHJhbnNmb3JtPSJtYXRyaXgoMSwwLDAsMSw4MjUsMjA2LjQxNzMyMjgzNDY0NTU3KSB0cmFuc2xhdGUoMTAwLjkwMDA2MTcyODM5NTA3IDU5LjAyNzc3Nzc3Nzc3Nzc4KSIgeGxpbms6aHJlZj0iI0kiLz48cGF0aCBmaWxsPSJub25lIiBzdHJva2Utd2lkdGg9IjIiIHN0cm9rZT0iIzVlNWU1ZSIgZD0iTTcyMi41IDg4My4xNmg0M2E2IDYgMCAwIDAgNi02VjI2Ny40MmE2IDYgMCAwIDEgNi02SDgwMyIvPjxwYXRoIGZpbGw9IiM1ZTVlNWUiIHN0cm9rZS13aWR0aD0iLjA1IiBzdHJva2U9IiM1ZTVlNWUiIGQ9Ik03MjIuNTMgODg0LjE2aC0xLjAzdi0yaDEuMDN6Ii8+PHBhdGggZmlsbD0iIzVlNWU1ZSIgc3Ryb2tlLXdpZHRoPSIyIiBzdHJva2U9IiM1ZTVlNWUiIGQ9Ik04MTguMjYgMjYxLjQyTDgwNCAyNjYuMDV2LTkuMjd6Ii8+PHBhdGggZmlsbD0ibm9uZSIgc3Ryb2tlLXdpZHRoPSIyIiBzdHJva2U9IiM1ZTVlNWUiIGQ9Ik05NDIgMjMwLjA0VjE0NmE2IDYgMCAwIDEgNi02aDEzMy4zMyIvPjxwYXRoIGZpbGw9IiM1ZTVlNWUiIHN0cm9rZS13aWR0aD0iLjA1IiBzdHJva2U9IiM1ZTVlNWUiIGQ9Ik05NDMgMjMxLjhsLTItMS41di0uM2gyeiIvPjxwYXRoIGZpbGw9IiM1ZTVlNWUiIHN0cm9rZS13aWR0aD0iMiIgc3Ryb2tlPSIjNWU1ZTVlIiBkPSJNMTA5Ni42IDE0MGwtMTQuMjcgNC42M3YtOS4yNnoiLz48cGF0aCBmaWxsPSJub25lIiBzdHJva2Utd2lkdGg9IjIiIHN0cm9rZT0iIzVlNWU1ZSIgZD0iTTIwMi41LTEwaDE1YTYgNiAwIDAgMSA2IDZ2MThhNiA2IDAgMCAwIDYgNkgzNzRhNiA2IDAgMCAxIDYgNnYxMy4xNmE2IDYgMCAwIDAgNiA2aDE1NCIvPjxwYXRoIGZpbGw9IiM1ZTVlNWUiIHN0cm9rZS13aWR0aD0iLjA1IiBzdHJva2U9IiM1ZTVlNWUiIGQ9Ik0yMDIuNTMtOWgtMS4wNmwuMDMtLjk4di0uMjJsLS4wMy0uOGgxLjA2eiIvPjxwYXRoIGZpbGw9IiM1ZTVlNWUiIHN0cm9rZS13aWR0aD0iMiIgc3Ryb2tlPSIjNWU1ZTVlIiBkPSJNNTU1LjI2IDQ1LjE2TDU0MSA0OS44di05LjI3eiIvPjxwYXRoIGZpbGw9Im5vbmUiIHN0cm9rZS13aWR0aD0iMiIgc3Ryb2tlPSIjNWU1ZTVlIiBkPSJNMjAyLjUgODBINTQwIi8+PHBhdGggZmlsbD0iIzVlNWU1ZSIgc3Ryb2tlLXdpZHRoPSIuMDUiIHN0cm9rZT0iIzVlNWU1ZSIgZD0iTTIwMi41MyA4MWgtMS4wNmwuMDMtLjk4di0uMjJsLS4wMy0uOGgxLjA2eiIvPjxwYXRoIGZpbGw9IiM1ZTVlNWUiIHN0cm9rZS13aWR0aD0iMiIgc3Ryb2tlPSIjNWU1ZTVlIiBkPSJNNTU1LjI2IDgwTDU0MSA4NC42NHYtOS4yOHoiLz48cGF0aCBmaWxsPSIjZmY4ZjhmIiBzdHJva2Utd2lkdGg9IjMiIHN0cm9rZT0iIzVlNWU1ZSIgZD0iTTkwNS44NyA1MDMuNmE4IDggMCAwIDEgOS42IDBsNzAuNCA1Mi44YTQuNSA0LjUgMCAwIDEgMCA3LjJsLTcwLjQgNTIuOGE4IDggMCAwIDEtOS42IDBsLTcwLjQtNTIuOGE0LjUgNC41IDAgMCAxIDAtNy4yeiIvPjx1c2UgdHJhbnNmb3JtPSJtYXRyaXgoMSwwLDAsMSw4MzUuNjY2NjY2NjY2NjY2NSw1MDUpIHRyYW5zbGF0ZSgyOS4zNTY4NTE4NTE4NTE4NSA1OS4wMjc3Nzc3Nzc3Nzc3OCkiIHhsaW5rOmhyZWY9IiNKIi8+PHVzZSB0cmFuc2Zvcm09Im1hdHJpeCgxLDAsMCwxLDgzNS42NjY2NjY2NjY2NjY1LDUwNSkgdHJhbnNsYXRlKDcyLjU2NjcyODM5NTA2MTczIDU5LjAyNzc3Nzc3Nzc3Nzc4KSIgeGxpbms6aHJlZj0iI0siLz48cGF0aCBmaWxsPSIjZmY4ZjhmIiBzdHJva2Utd2lkdGg9IjMiIHN0cm9rZT0iIzVlNWU1ZSIgZD0iTTExNTQuOSA3ODMuMThhOS42IDkuNiAwIDAgMSAxMC4yIDBsNjkuOCA0My42NGEzLjc1IDMuNzUgMCAwIDEgMCA2LjM2bC02OS44IDQzLjY0YTkuNiA5LjYgMCAwIDEtMTAuMiAwbC02OS44LTQzLjY0YTMuNzUgMy43NSAwIDAgMSAwLTYuMzZ6Ii8+PHVzZSB0cmFuc2Zvcm09Im1hdHJpeCgxLDAsMCwxLDEwODUsNzg1KSB0cmFuc2xhdGUoMjkuMzg3NzE2MDQ5MzgyNzA3IDQxLjc4Nzc3Nzc3Nzc3Nzc4KSIgeGxpbms6aHJlZj0iI0wiLz48dXNlIHRyYW5zZm9ybT0ibWF0cml4KDEsMCwwLDEsMTA4NSw3ODUpIHRyYW5zbGF0ZSg1OC45ODY0ODE0ODE0ODE0OCA2OC40NTQ0NDQ0NDQ0NDQ0NSkiIHhsaW5rOmhyZWY9IiNJIi8+PHBhdGggZmlsbD0ibm9uZSIgc3Ryb2tlLXdpZHRoPSIyIiBzdHJva2U9IiM1ZTVlNWUiIGQ9Ik03MjIuNSA5NDMuMTZoMTQzLjMyYTYgNiAwIDAgMCA2LTZWNjExLjI0Ii8+PHBhdGggZmlsbD0iIzVlNWU1ZSIgc3Ryb2tlLXdpZHRoPSIuMDUiIHN0cm9rZT0iIzVlNWU1ZSIgZD0iTTcyMi41MyA5NDQuMTZoLTEuMDN2LTJoMS4wM3oiLz48cGF0aCBmaWxsPSIjNWU1ZTVlIiBzdHJva2Utd2lkdGg9IjIiIHN0cm9rZT0iIzVlNWU1ZSIgZD0iTTg3MS44MiA1OTUuOThsNC42MyAxNC4yNmgtOS4yN3oiLz48cGF0aCBmaWxsPSJub25lIiBzdHJva2Utd2lkdGg9IjIiIHN0cm9rZT0iIzVlNWU1ZSIgZD0iTTk1My4zIDUyOS4xdi0zM2E2IDYgMCAwIDEgNi02SDExNTRhNiA2IDAgMCAxIDYgNnY1My40Ii8+PHBhdGggZmlsbD0iIzVlNWU1ZSIgc3Ryb2tlLXdpZHRoPSIuMDUiIHN0cm9rZT0iIzVlNWU1ZSIgZD0iTTk1NC4zIDUzMC44NWwtMi0xLjV2LS4yOGgyeiIvPjxwYXRoIGZpbGw9IiM1ZTVlNWUiIHN0cm9rZS13aWR0aD0iMiIgc3Ryb2tlPSIjNWU1ZTVlIiBkPSJNMTE2MCA1NjQuNzdsLTQuNjMtMTQuMjdoOS4yN3oiLz48cGF0aCBmaWxsPSJub25lIiBzdHJva2Utd2lkdGg9IjIiIHN0cm9rZT0iIzVlNWU1ZSIgZD0iTTExNjAgNjkydjY5LjcyIi8+PHBhdGggZmlsbD0iIzVlNWU1ZSIgc3Ryb2tlLXdpZHRoPSIuMDUiIHN0cm9rZT0iIzVlNWU1ZSIgZD0iTTExNjEgNjkyLjAzaC0yVjY5MWgyeiIvPjxwYXRoIGZpbGw9IiM1ZTVlNWUiIHN0cm9rZS13aWR0aD0iMiIgc3Ryb2tlPSIjNWU1ZTVlIiBkPSJNMTE2MCA3NzYuOThsLTQuNjMtMTQuMjZoOS4yN3oiLz48cGF0aCBmaWxsPSIjNWU1ZTVlIiBzdHJva2Utd2lkdGg9Ii4wNSIgc3Ryb2tlPSIjNWU1ZTVlIiBkPSJNMTE2MSA5NDBoLTJ2LTEwLjJoMnptMC0zMS41M2gtMnYtMjcuN2gyeiIvPjxwYXRoIGZpbGw9IiM1ZTVlNWUiIGQ9Ik0xMTYwIDg3OS43OGwxLS4wNXYxLjA4aC0ydi0xLjA3eiIvPjxwYXRoIGZpbGw9IiM1ZTVlNWUiIHN0cm9rZS13aWR0aD0iLjA1IiBzdHJva2U9IiM1ZTVlNWUiIGQ9Ik0xMTYwIDg3OS43NmwxLjAzLS4wNnYxLjEzaC0yLjA2di0xLjEzem0tLjk3IDEuMDJoMS45NHYtMS4wM2wtLjk3LjA2LS45Ny0uMDV6Ii8+PHBhdGggZmlsbD0iIzVlNWU1ZSIgZD0iTTExNjAgOTU1LjI2bC00LjYzLTE0LjI2aDkuMjd6Ii8+PHBhdGggZmlsbD0iIzVlNWU1ZSIgc3Ryb2tlLXdpZHRoPSIuMDUiIHN0cm9rZT0iIzVlNWU1ZSIgZD0iTTExNjAgOTU4LjVsLTYtMTguNWgxMnptLTMuMjYtMTYuNWwzLjI2IDEwLjAzIDMuMjYtMTAuMDN6Ii8+PGc+PHVzZSB0cmFuc2Zvcm09Im1hdHJpeCgxLDAsMCwxLDExNTEuNjA0OTM4MjcxNjA0OSw5MDguNDc0MTMzNDU2MjQ1NikgdHJhbnNsYXRlKDAuMDA1MDAwMDAwMDAwMDAwNzgyIDE0LjIyMjIyMjIyMjIyMjIyMykiIHhsaW5rOmhyZWY9IiNNIi8+PC9nPjxkZWZzPjxwYXRoIGlkPSJOIiBkPSJNMjEyLTE3OWMtMTAtMjgtMzUtNDUtNzMtNDUtNTkgMC04NyA0MC04NyA5OSAwIDYwIDI5IDEwMSA4OSAxMDEgNDMgMCA2Mi0yNCA3OC01MmwyNyAxNEMyMjgtMjQgMTk1IDQgMTM5IDQgNTkgNCAyMi00NiAxOC0xMjVjLTYtMTA0IDk5LTE1MyAxODctMTExIDE5IDkgMzEgMjYgMzkgNDYiIGZpbGw9IiMzMzMiLz48cGF0aCBpZD0iTyIgZD0iTTI0IDB2LTI2MWgzMlYwSDI0IiBmaWxsPSIjMzMzIi8+PHBhdGggaWQ9IlAiIGQ9Ik0yNC0yMzF2LTMwaDMydjMwSDI0ek0yNCAwdi0xOTBoMzJWMEgyNCIgZmlsbD0iIzMzMyIvPjxwYXRoIGlkPSJRIiBkPSJNMTAwLTE5NGM2MyAwIDg2IDQyIDg0IDEwNkg0OWMwIDQwIDE0IDY3IDUzIDY4IDI2IDEgNDMtMTIgNDktMjlsMjggOGMtMTEgMjgtMzcgNDUtNzcgNDVDNDQgNCAxNC0zMyAxNS05NmMxLTYxIDI2LTk4IDg1LTk4em01MiA4MWM2LTYwLTc2LTc3LTk3LTI4LTMgNy02IDE3LTYgMjhoMTAzIiBmaWxsPSIjMzMzIi8+PHBhdGggaWQ9IlIiIGQ9Ik0xMTctMTk0Yzg5LTQgNTMgMTE2IDYwIDE5NGgtMzJ2LTEyMWMwLTMxLTgtNDktMzktNDhDMzQtMTY3IDYyLTY3IDU3IDBIMjVsLTEtMTkwaDMwYzEgMTAtMSAyNCAyIDMyIDExLTIyIDI5LTM1IDYxLTM2IiBmaWxsPSIjMzMzIi8+PHBhdGggaWQ9IlMiIGQ9Ik01OS00N2MtMiAyNCAxOCAyOSAzOCAyMnYyNEM2NCA5IDI3IDQgMjctNDB2LTEyN0g1di0yM2gyNGw5LTQzaDIxdjQzaDM1djIzSDU5djEyMCIgZmlsbD0iIzMzMyIvPjxnIGlkPSJhIj48dXNlIHhsaW5rOmhyZWY9IiNOIiB0cmFuc2Zvcm09Im1hdHJpeCgwLjA2MTcyODM5NTA2MTcyODM5LDAsMCwwLjA2MTcyODM5NTA2MTcyODM5LDAsMCkiLz48dXNlIHhsaW5rOmhyZWY9IiNPIiB0cmFuc2Zvcm09Im1hdHJpeCgwLjA2MTcyODM5NTA2MTcyODM5LDAsMCwwLjA2MTcyODM5NTA2MTcyODM5LDE1Ljk4NzY1NDMyMDk4NzY1MywwKSIvPjx1c2UgeGxpbms6aHJlZj0iI1AiIHRyYW5zZm9ybT0ibWF0cml4KDAuMDYxNzI4Mzk1MDYxNzI4MzksMCwwLDAuMDYxNzI4Mzk1MDYxNzI4MzksMjAuODY0MTk3NTMwODY0MTk2LDApIi8+PHVzZSB4bGluazpocmVmPSIjUSIgdHJhbnNmb3JtPSJtYXRyaXgoMC4wNjE3MjgzOTUwNjE3MjgzOSwwLDAsMC4wNjE3MjgzOTUwNjE3MjgzOSwyNS43NDA3NDA3NDA3NDA3NCwwKSIvPjx1c2UgeGxpbms6aHJlZj0iI1IiIHRyYW5zZm9ybT0ibWF0cml4KDAuMDYxNzI4Mzk1MDYxNzI4MzksMCwwLDAuMDYxNzI4Mzk1MDYxNzI4MzksMzguMDg2NDE5NzUzMDg2NDIsMCkiLz48dXNlIHhsaW5rOmhyZWY9IiNTIiB0cmFuc2Zvcm09Im1hdHJpeCgwLjA2MTcyODM5NTA2MTcyODM5LDAsMCwwLjA2MTcyODM5NTA2MTcyODM5LDUwLjQzMjA5ODc2NTQzMjA5NCwwKSIvPjx1c2UgeGxpbms6aHJlZj0iI1EiIHRyYW5zZm9ybT0ibWF0cml4KDAuMDYxNzI4Mzk1MDYxNzI4MzksMCwwLDAuMDYxNzI4Mzk1MDYxNzI4MzksNTYuNjA0OTM4MjcxNjA0OTQsMCkiLz48L2c+PHBhdGggaWQ9IlQiIGQ9Ik0xMDggMEg3MEwxLTE5MGgzNEw4OS0yNWw1Ni0xNjVoMzQiIGZpbGw9IiMzMzMiLz48cGF0aCBpZD0iVSIgZD0iTTEwNi0xNjlDMzQtMTY5IDYyLTY3IDU3IDBIMjV2LTI2MWgzMmwtMSAxMDNjMTItMjEgMjgtMzYgNjEtMzYgODkgMCA1MyAxMTYgNjAgMTk0aC0zMnYtMTIxYzItMzItOC00OS0zOS00OCIgZmlsbD0iIzMzMyIvPjxwYXRoIGlkPSJWIiBkPSJNMzQgMHYtMTkwaDMyVjBIMzR6TTI0LTIxMWM4LTIzIDI3LTM1IDM4LTU0aDM2djVsLTU4IDQ5SDI0IiBmaWxsPSIjMzMzIi8+PHBhdGggaWQ9IlciIGQ9Ik05Ni0xNjljLTQwIDAtNDggMzMtNDggNzNzOSA3NSA0OCA3NWMyNCAwIDQxLTE0IDQzLTM4bDMyIDJjLTYgMzctMzEgNjEtNzQgNjEtNTkgMC03Ni00MS04Mi05OS0xMC05MyAxMDEtMTMxIDE0Ny02NCA0IDcgNSAxNCA3IDIybC0zMiAzYy00LTIxLTE2LTM1LTQxLTM1IiBmaWxsPSIjMzMzIi8+PHBhdGggaWQ9IlgiIGQ9Ik04NCA0Qy01IDggMzAtMTEyIDIzLTE5MGgzMnYxMjBjMCAzMSA3IDUwIDM5IDQ5IDcyLTIgNDUtMTAxIDUwLTE2OWgzMWwxIDE5MGgtMzBjLTEtMTAgMS0yNS0yLTMzLTExIDIyLTI4IDM2LTYwIDM3IiBmaWxsPSIjMzMzIi8+PHBhdGggaWQ9IlkiIGQ9Ik0xMDAtMTk0YzYyLTEgODUgMzcgODUgOTkgMSA2My0yNyA5OS04NiA5OVMxNi0zNSAxNS05NWMwLTY2IDI4LTk5IDg1LTk5ek05OS0yMGM0NCAxIDUzLTMxIDUzLTc1IDAtNDMtOC03NS01MS03NXMtNTMgMzItNTMgNzUgMTAgNzQgNTEgNzUiIGZpbGw9IiMzMzMiLz48ZyBpZD0iYiI+PHVzZSB4bGluazpocmVmPSIjVCIgdHJhbnNmb3JtPSJtYXRyaXgoMC4wNjE3MjgzOTUwNjE3MjgzOSwwLDAsMC4wNjE3MjgzOTUwNjE3MjgzOSwwLDApIi8+PHVzZSB4bGluazpocmVmPSIjUSIgdHJhbnNmb3JtPSJtYXRyaXgoMC4wNjE3MjgzOTUwNjE3MjgzOSwwLDAsMC4wNjE3MjgzOTUwNjE3MjgzOSwxMS4xMTExMTExMTExMTExMSwwKSIvPjx1c2UgeGxpbms6aHJlZj0iI1UiIHRyYW5zZm9ybT0ibWF0cml4KDAuMDYxNzI4Mzk1MDYxNzI4MzksMCwwLDAuMDYxNzI4Mzk1MDYxNzI4MzksMjMuNDU2NzkwMTIzNDU2NzksMCkiLz48dXNlIHhsaW5rOmhyZWY9IiNWIiB0cmFuc2Zvcm09Im1hdHJpeCgwLjA2MTcyODM5NTA2MTcyODM5LDAsMCwwLjA2MTcyODM5NTA2MTcyODM5LDM1LjgwMjQ2OTEzNTgwMjQ3LDApIi8+PHVzZSB4bGluazpocmVmPSIjVyIgdHJhbnNmb3JtPSJtYXRyaXgoMC4wNjE3MjgzOTUwNjE3MjgzOSwwLDAsMC4wNjE3MjgzOTUwNjE3MjgzOSw0MS45NzUzMDg2NDE5NzUzMSwwKSIvPjx1c2UgeGxpbms6aHJlZj0iI1giIHRyYW5zZm9ybT0ibWF0cml4KDAuMDYxNzI4Mzk1MDYxNzI4MzksMCwwLDAuMDYxNzI4Mzk1MDYxNzI4MzksNTMuMDg2NDE5NzUzMDg2NDIsMCkiLz48dXNlIHhsaW5rOmhyZWY9IiNPIiB0cmFuc2Zvcm09Im1hdHJpeCgwLjA2MTcyODM5NTA2MTcyODM5LDAsMCwwLjA2MTcyODM5NTA2MTcyODM5LDY1LjQzMjA5ODc2NTQzMjEsMCkiLz48dXNlIHhsaW5rOmhyZWY9IiNZIiB0cmFuc2Zvcm09Im1hdHJpeCgwLjA2MTcyODM5NTA2MTcyODM5LDAsMCwwLjA2MTcyODM5NTA2MTcyODM5LDcwLjMwODY0MTk3NTMwODY1LDApIi8+PC9nPjxwYXRoIGlkPSJaIiBkPSJNMjEwLTE2OWMtNjcgMy0zOCAxMDUtNDQgMTY5aC0zMXYtMTIxYzAtMjktNS01MC0zNS00OEMzNC0xNjUgNjItNjUgNTYgMEgyNWwtMS0xOTBoMzBjMSAxMC0xIDI0IDIgMzIgMTAtNDQgOTktNTAgMTA3IDAgMTEtMjEgMjctMzUgNTgtMzYgODUtMiA0NyAxMTkgNTUgMTk0aC0zMXYtMTIxYzAtMjktNS00OS0zNS00OCIgZmlsbD0iIzMzMyIvPjxwYXRoIGlkPSJhYSIgZD0iTTExNS0xOTRjNTMgMCA2OSAzOSA3MCA5OCAwIDY2LTIzIDEwMC03MCAxMDBDODQgMyA2Ni03IDU2LTMwTDU0IDBIMjNsMS0yNjFoMzJ2MTAxYzEwLTIzIDI4LTM0IDU5LTM0em0tOCAxNzRjNDAgMCA0NS0zNCA0NS03NSAwLTQwLTUtNzUtNDUtNzQtNDIgMC01MSAzMi01MSA3NiAwIDQzIDEwIDczIDUxIDczIiBmaWxsPSIjMzMzIi8+PHBhdGggaWQ9ImFiIiBkPSJNMTE0LTE2M0MzNi0xNzkgNjEtNzIgNTcgMEgyNWwtMS0xOTBoMzBjMSAxMi0xIDI5IDIgMzkgNi0yNyAyMy00OSA1OC00MXYyOSIgZmlsbD0iIzMzMyIvPjxnIGlkPSJjIj48dXNlIHhsaW5rOmhyZWY9IiNSIiB0cmFuc2Zvcm09Im1hdHJpeCgwLjA2MTcyODM5NTA2MTcyODM5LDAsMCwwLjA2MTcyODM5NTA2MTcyODM5LDAsMCkiLz48dXNlIHhsaW5rOmhyZWY9IiNZIiB0cmFuc2Zvcm09Im1hdHJpeCgwLjA2MTcyODM5NTA2MTcyODM5LDAsMCwwLjA2MTcyODM5NTA2MTcyODM5LDEyLjM0NTY3OTAxMjM0NTY3OSwwKSIvPjx1c2UgeGxpbms6aHJlZj0iI1oiIHRyYW5zZm9ybT0ibWF0cml4KDAuMDYxNzI4Mzk1MDYxNzI4MzksMCwwLDAuMDYxNzI4Mzk1MDYxNzI4MzksMjQuNjkxMzU4MDI0NjkxMzU4LDApIi8+PHVzZSB4bGluazpocmVmPSIjYWEiIHRyYW5zZm9ybT0ibWF0cml4KDAuMDYxNzI4Mzk1MDYxNzI4MzksMCwwLDAuMDYxNzI4Mzk1MDYxNzI4MzksNDMuMTQ4MTQ4MTQ4MTQ4MTQ1LDApIi8+PHVzZSB4bGluazpocmVmPSIjYWIiIHRyYW5zZm9ybT0ibWF0cml4KDAuMDYxNzI4Mzk1MDYxNzI4MzksMCwwLDAuMDYxNzI4Mzk1MDYxNzI4MzksNTUuNDkzODI3MTYwNDkzODIsMCkiLz48dXNlIHhsaW5rOmhyZWY9IiNRIiB0cmFuc2Zvcm09Im1hdHJpeCgwLjA2MTcyODM5NTA2MTcyODM5LDAsMCwwLjA2MTcyODM5NTA2MTcyODM5LDYyLjgzOTUwNjE3MjgzOTUsMCkiLz48cGF0aCBkPSJNLTEuMSAxLjU0aDc3LjR2MS42M0gtMS4xeiIgZmlsbD0iIzMzMyIvPjwvZz48cGF0aCBpZD0iYWMiIGQ9Ik0xNDEtMzZDMTI2LTE1IDExMCA1IDczIDQgMzcgMyAxNS0xNyAxNS01M2MtMS02NCA2My02MyAxMjUtNjMgMy0zNS05LTU0LTQxLTU0LTI0IDEtNDEgNy00MiAzMWwtMzMtM2M1LTM3IDMzLTUyIDc2LTUyIDQ1IDAgNzIgMjAgNzIgNjR2ODJjLTEgMjAgNyAzMiAyOCAyN3YyMGMtMzEgOS02MS0yLTU5LTM1ek00OC01M2MwIDIwIDEyIDMzIDMyIDMzIDQxLTMgNjMtMjkgNjAtNzQtNDMgMi05Mi01LTkyIDQxIiBmaWxsPSIjMzMzIi8+PHBhdGggaWQ9ImFkIiBkPSJNMTE1LTE5NGM1NSAxIDcwIDQxIDcwIDk4UzE2OSAyIDExNSA0Qzg0IDQgNjYtOSA1NS0zMGwxIDEwNUgyNGwtMS0yNjVoMzFsMiAzMGMxMC0yMSAyOC0zNCA1OS0zNHptLTggMTc0YzQwIDAgNDUtMzQgNDUtNzVzLTYtNzMtNDUtNzRjLTQyIDAtNTEgMzItNTEgNzYgMCA0MyAxMCA3MyA1MSA3MyIgZmlsbD0iIzMzMyIvPjxwYXRoIGlkPSJhZSIgZD0iTTg1LTE5NGMzMSAwIDQ4IDEzIDYwIDMzbC0xLTEwMGgzMmwxIDI2MWgtMzBjLTItMTAgMC0yMy0zLTMxQzEzNC04IDExNiA0IDg1IDQgMzIgNCAxNi0zNSAxNS05NGMwLTY2IDIzLTEwMCA3MC0xMDB6bTkgMjRjLTQwIDAtNDYgMzQtNDYgNzUgMCA0MCA2IDc0IDQ1IDc0IDQyIDAgNTEtMzIgNTEtNzYgMC00Mi05LTc0LTUwLTczIiBmaWxsPSIjMzMzIi8+PHBhdGggaWQ9ImFmIiBkPSJNMjcgMHYtMjdoNjR2LTE5MGwtNTYgMzl2LTI5bDU4LTQxaDI5djIyMWg2MVYwSDI3IiBmaWxsPSIjMzMzIi8+PGcgaWQ9ImQiPjx1c2UgeGxpbms6aHJlZj0iI2FjIiB0cmFuc2Zvcm09Im1hdHJpeCgwLjA2MTcyODM5NTA2MTcyODM5LDAsMCwwLjA2MTcyODM5NTA2MTcyODM5LDAsMCkiLz48dXNlIHhsaW5rOmhyZWY9IiNhZCIgdHJhbnNmb3JtPSJtYXRyaXgoMC4wNjE3MjgzOTUwNjE3MjgzOSwwLDAsMC4wNjE3MjgzOTUwNjE3MjgzOSwxMi4zNDU2NzkwMTIzNDU2NzksMCkiLz48dXNlIHhsaW5rOmhyZWY9IiNRIiB0cmFuc2Zvcm09Im1hdHJpeCgwLjA2MTcyODM5NTA2MTcyODM5LDAsMCwwLjA2MTcyODM5NTA2MTcyODM5LDI0LjY5MTM1ODAyNDY5MTM1OCwwKSIvPjx1c2UgeGxpbms6aHJlZj0iI08iIHRyYW5zZm9ybT0ibWF0cml4KDAuMDYxNzI4Mzk1MDYxNzI4MzksMCwwLDAuMDYxNzI4Mzk1MDYxNzI4MzksMzcuMDM3MDM3MDM3MDM3MDQsMCkiLz48dXNlIHhsaW5rOmhyZWY9IiNPIiB0cmFuc2Zvcm09Im1hdHJpeCgwLjA2MTcyODM5NTA2MTcyODM5LDAsMCwwLjA2MTcyODM5NTA2MTcyODM5LDQxLjkxMzU4MDI0NjkxMzU4LDApIi8+PHVzZSB4bGluazpocmVmPSIjUCIgdHJhbnNmb3JtPSJtYXRyaXgoMC4wNjE3MjgzOTUwNjE3MjgzOSwwLDAsMC4wNjE3MjgzOTUwNjE3MjgzOSw0Ni43OTAxMjM0NTY3OTAxMywwKSIvPjx1c2UgeGxpbms6aHJlZj0iI2FlIiB0cmFuc2Zvcm09Im1hdHJpeCgwLjA2MTcyODM5NTA2MTcyODM5LDAsMCwwLjA2MTcyODM5NTA2MTcyODM5LDUxLjY2NjY2NjY2NjY2NjY3LDApIi8+PHVzZSB4bGluazpocmVmPSIjWSIgdHJhbnNmb3JtPSJtYXRyaXgoMC4wNjE3MjgzOTUwNjE3MjgzOSwwLDAsMC4wNjE3MjgzOTUwNjE3MjgzOSw2NC4wMTIzNDU2NzkwMTIzNiwwKSIvPjx1c2UgeGxpbms6aHJlZj0iI2FmIiB0cmFuc2Zvcm09Im1hdHJpeCgwLjA2MTcyODM5NTA2MTcyODM5LDAsMCwwLjA2MTcyODM5NTA2MTcyODM5LDc2LjM1ODAyNDY5MTM1ODA0LDApIi8+PHBhdGggZD0iTS0xLjEgMS41NEg4OS44djEuNjNILTEuMXoiIGZpbGw9IiMzMzMiLz48cGF0aCBkPSJNODcuNjQgMS40OGgyLjEzdjEuNTZoLTIuMTN6Ii8+PC9nPjxwYXRoIGlkPSJhZyIgZD0iTTEwMS0yNTFjODItNyA5MyA4NyA0MyAxMzJMODItNjRDNzEtNTMgNTktNDIgNTMtMjdoMTI5VjBIMThjMi05OSAxMjgtOTQgMTI4LTE4MiAwLTI4LTE2LTQzLTQ1LTQzcy00NiAxNS00OSA0MWwtMzItM2M2LTQxIDM0LTYwIDgxLTY0IiBmaWxsPSIjMzMzIi8+PGcgaWQ9ImUiPjx1c2UgeGxpbms6aHJlZj0iI2FjIiB0cmFuc2Zvcm09Im1hdHJpeCgwLjA2MTcyODM5NTA2MTcyODM5LDAsMCwwLjA2MTcyODM5NTA2MTcyODM5LDAsMCkiLz48dXNlIHhsaW5rOmhyZWY9IiNhZCIgdHJhbnNmb3JtPSJtYXRyaXgoMC4wNjE3MjgzOTUwNjE3MjgzOSwwLDAsMC4wNjE3MjgzOTUwNjE3MjgzOSwxMi4zNDU2NzkwMTIzNDU2NzksMCkiLz48dXNlIHhsaW5rOmhyZWY9IiNRIiB0cmFuc2Zvcm09Im1hdHJpeCgwLjA2MTcyODM5NTA2MTcyODM5LDAsMCwwLjA2MTcyODM5NTA2MTcyODM5LDI0LjY5MTM1ODAyNDY5MTM1OCwwKSIvPjx1c2UgeGxpbms6aHJlZj0iI08iIHRyYW5zZm9ybT0ibWF0cml4KDAuMDYxNzI4Mzk1MDYxNzI4MzksMCwwLDAuMDYxNzI4Mzk1MDYxNzI4MzksMzcuMDM3MDM3MDM3MDM3MDQsMCkiLz48dXNlIHhsaW5rOmhyZWY9IiNPIiB0cmFuc2Zvcm09Im1hdHJpeCgwLjA2MTcyODM5NTA2MTcyODM5LDAsMCwwLjA2MTcyODM5NTA2MTcyODM5LDQxLjkxMzU4MDI0NjkxMzU4LDApIi8+PHVzZSB4bGluazpocmVmPSIjUCIgdHJhbnNmb3JtPSJtYXRyaXgoMC4wNjE3MjgzOTUwNjE3MjgzOSwwLDAsMC4wNjE3MjgzOTUwNjE3MjgzOSw0Ni43OTAxMjM0NTY3OTAxMywwKSIvPjx1c2UgeGxpbms6aHJlZj0iI2FlIiB0cmFuc2Zvcm09Im1hdHJpeCgwLjA2MTcyODM5NTA2MTcyODM5LDAsMCwwLjA2MTcyODM5NTA2MTcyODM5LDUxLjY2NjY2NjY2NjY2NjY3LDApIi8+PHVzZSB4bGluazpocmVmPSIjWSIgdHJhbnNmb3JtPSJtYXRyaXgoMC4wNjE3MjgzOTUwNjE3MjgzOSwwLDAsMC4wNjE3MjgzOTUwNjE3MjgzOSw2NC4wMTIzNDU2NzkwMTIzNiwwKSIvPjx1c2UgeGxpbms6aHJlZj0iI2FnIiB0cmFuc2Zvcm09Im1hdHJpeCgwLjA2MTcyODM5NTA2MTcyODM5LDAsMCwwLjA2MTcyODM5NTA2MTcyODM5LDc2LjM1ODAyNDY5MTM1ODA0LDApIi8+PC9nPjxwYXRoIGlkPSJhaCIgZD0iTTMwLTI0OGMxMTgtNyAyMTYgOCAyMTMgMTIyQzI0MC00OCAyMDAgMCAxMjIgMEgzMHYtMjQ4ek02My0yN2M4OSA4IDE0Ni0xNiAxNDYtOTlzLTYwLTEwMS0xNDYtOTV2MTk0IiBmaWxsPSIjMzMzIi8+PHBhdGggaWQ9ImFpIiBkPSJNMTkwIDBMNTgtMjExIDU5IDBIMzB2LTI0OGgzOUwyMDItMzVsLTItMjEzaDMxVjBoLTQxIiBmaWxsPSIjMzMzIi8+PHBhdGggaWQ9ImFqIiBkPSJNMzMgMHYtMjQ4aDM0VjBIMzMiIGZpbGw9IiMzMzMiLz48ZyBpZD0iZiI+PHVzZSB4bGluazpocmVmPSIjYWgiIHRyYW5zZm9ybT0ibWF0cml4KDAuMDYxNzI4Mzk1MDYxNzI4MzksMCwwLDAuMDYxNzI4Mzk1MDYxNzI4MzksMCwwKSIvPjx1c2UgeGxpbms6aHJlZj0iI2FpIiB0cmFuc2Zvcm09Im1hdHJpeCgwLjA2MTcyODM5NTA2MTcyODM5LDAsMCwwLjA2MTcyODM5NTA2MTcyODM5LDE1Ljk4NzY1NDMyMDk4NzY1MywwKSIvPjx1c2UgeGxpbms6aHJlZj0iI2FqIiB0cmFuc2Zvcm09Im1hdHJpeCgwLjA2MTcyODM5NTA2MTcyODM5LDAsMCwwLjA2MTcyODM5NTA2MTcyODM5LDMxLjk3NTMwODY0MTk3NTMwNywwKSIvPjxwYXRoIGQ9Ik0tMS4xIDEuNTRoNDAuMzZ2MS42M0gtMS4xeiIgZmlsbD0iIzMzMyIvPjwvZz48cGF0aCBpZD0iYWsiIGQ9Ik0xMDAtMTk0YzYzIDAgODYgNDIgODQgMTA2SDQ5YzAgNDAgMTQgNjcgNTMgNjggMjYgMSA0My0xMiA0OS0yOWwyOCA4Yy0xMSAyOC0zNyA0NS03NyA0NUM0NCA0IDE0LTMzIDE1LTk2YzEtNjEgMjYtOTggODUtOTh6bTUyIDgxYzYtNjAtNzYtNzctOTctMjgtMyA3LTYgMTctNiAyOGgxMDN6bS03NC05OGM4LTIzIDI3LTM1IDM4LTU0aDM2djVsLTU4IDQ5SDc4IiBmaWxsPSIjMzMzIi8+PHBhdGggaWQ9ImFsIiBkPSJNMTAxLTIzNGMtMzEtOS00MiAxMC0zOCA0NGgzOHYyM0g2M1YwSDMydi0xNjdINXYtMjNoMjdjLTctNTIgMTctODIgNjktNjh2MjQiIGZpbGw9IiMzMzMiLz48ZyBpZD0iZyI+PHVzZSB4bGluazpocmVmPSIjUyIgdHJhbnNmb3JtPSJtYXRyaXgoMC4wNjE3MjgzOTUwNjE3MjgzOSwwLDAsMC4wNjE3MjgzOTUwNjE3MjgzOSwwLDApIi8+PHVzZSB4bGluazpocmVmPSIjUSIgdHJhbnNmb3JtPSJtYXRyaXgoMC4wNjE3MjgzOTUwNjE3MjgzOSwwLDAsMC4wNjE3MjgzOTUwNjE3MjgzOSw2LjE3MjgzOTUwNjE3MjgzOSwwKSIvPjx1c2UgeGxpbms6aHJlZj0iI08iIHRyYW5zZm9ybT0ibWF0cml4KDAuMDYxNzI4Mzk1MDYxNzI4MzksMCwwLDAuMDYxNzI4Mzk1MDYxNzI4MzksMTguNTE4NTE4NTE4NTE4NTIsMCkiLz48dXNlIHhsaW5rOmhyZWY9IiNhayIgdHJhbnNmb3JtPSJtYXRyaXgoMC4wNjE3MjgzOTUwNjE3MjgzOSwwLDAsMC4wNjE3MjgzOTUwNjE3MjgzOSwyMy4zOTUwNjE3MjgzOTUwNjMsMCkiLz48dXNlIHhsaW5rOmhyZWY9IiNhbCIgdHJhbnNmb3JtPSJtYXRyaXgoMC4wNjE3MjgzOTUwNjE3MjgzOSwwLDAsMC4wNjE3MjgzOTUwNjE3MjgzOSwzNS43NDA3NDA3NDA3NDA3NCwwKSIvPjx1c2UgeGxpbms6aHJlZj0iI1kiIHRyYW5zZm9ybT0ibWF0cml4KDAuMDYxNzI4Mzk1MDYxNzI4MzksMCwwLDAuMDYxNzI4Mzk1MDYxNzI4MzksNDEuOTEzNTgwMjQ2OTEzNTgsMCkiLz48dXNlIHhsaW5rOmhyZWY9IiNSIiB0cmFuc2Zvcm09Im1hdHJpeCgwLjA2MTcyODM5NTA2MTcyODM5LDAsMCwwLjA2MTcyODM5NTA2MTcyODM5LDU0LjI1OTI1OTI1OTI1OTI2LDApIi8+PHVzZSB4bGluazpocmVmPSIjWSIgdHJhbnNmb3JtPSJtYXRyaXgoMC4wNjE3MjgzOTUwNjE3MjgzOSwwLDAsMC4wNjE3MjgzOTUwNjE3MjgzOSw2Ni42MDQ5MzgyNzE2MDQ5NCwwKSIvPjwvZz48cGF0aCBpZD0iYW0iIGQ9Ik0xMzUtMTQzYy0zLTM0LTg2LTM4LTg3IDAgMTUgNTMgMTE1IDEyIDExOSA5MFMxNyAyMSAxMC00NWwyOC01YzQgMzYgOTcgNDUgOTggMC0xMC01Ni0xMTMtMTUtMTE4LTkwLTQtNTcgODItNjMgMTIyLTQyIDEyIDcgMjEgMTkgMjQgMzUiIGZpbGw9IiMzMzMiLz48cGF0aCBpZD0iYW4iIGQ9Ik0xNDEgMEw5MC03OCAzOCAwSDRsNjgtOTgtNjUtOTJoMzVsNDggNzQgNDctNzRoMzVsLTY0IDkyIDY4IDk4aC0zNSIgZmlsbD0iIzMzMyIvPjxnIGlkPSJoIj48dXNlIHhsaW5rOmhyZWY9IiNhbSIgdHJhbnNmb3JtPSJtYXRyaXgoMC4wNjE3MjgzOTUwNjE3MjgzOSwwLDAsMC4wNjE3MjgzOTUwNjE3MjgzOSwwLDApIi8+PHVzZSB4bGluazpocmVmPSIjUSIgdHJhbnNmb3JtPSJtYXRyaXgoMC4wNjE3MjgzOTUwNjE3MjgzOSwwLDAsMC4wNjE3MjgzOTUwNjE3MjgzOSwxMS4xMTExMTExMTExMTExMSwwKSIvPjx1c2UgeGxpbms6aHJlZj0iI2FuIiB0cmFuc2Zvcm09Im1hdHJpeCgwLjA2MTcyODM5NTA2MTcyODM5LDAsMCwwLjA2MTcyODM5NTA2MTcyODM5LDIzLjQ1Njc5MDEyMzQ1Njc5LDApIi8+PHVzZSB4bGluazpocmVmPSIjWSIgdHJhbnNmb3JtPSJtYXRyaXgoMC4wNjE3MjgzOTUwNjE3MjgzOSwwLDAsMC4wNjE3MjgzOTUwNjE3MjgzOSwzNC41Njc5MDEyMzQ1Njc5LDApIi8+PC9nPjxnIGlkPSJpIj48dXNlIHhsaW5rOmhyZWY9IiNhbCIgdHJhbnNmb3JtPSJtYXRyaXgoMC4wNjE3MjgzOTUwNjE3MjgzOSwwLDAsMC4wNjE3MjgzOTUwNjE3MjgzOSwwLDApIi8+PHVzZSB4bGluazpocmVmPSIjUSIgdHJhbnNmb3JtPSJtYXRyaXgoMC4wNjE3MjgzOTUwNjE3MjgzOSwwLDAsMC4wNjE3MjgzOTUwNjE3MjgzOSw2LjE3MjgzOTUwNjE3MjgzOSwwKSIvPjx1c2UgeGxpbms6aHJlZj0iI1ciIHRyYW5zZm9ybT0ibWF0cml4KDAuMDYxNzI4Mzk1MDYxNzI4MzksMCwwLDAuMDYxNzI4Mzk1MDYxNzI4MzksMTguNTE4NTE4NTE4NTE4NTIsMCkiLz48dXNlIHhsaW5rOmhyZWY9IiNVIiB0cmFuc2Zvcm09Im1hdHJpeCgwLjA2MTcyODM5NTA2MTcyODM5LDAsMCwwLjA2MTcyODM5NTA2MTcyODM5LDI5LjYyOTYyOTYyOTYyOTYzLDApIi8+PHVzZSB4bGluazpocmVmPSIjYWMiIHRyYW5zZm9ybT0ibWF0cml4KDAuMDYxNzI4Mzk1MDYxNzI4MzksMCwwLDAuMDYxNzI4Mzk1MDYxNzI4MzksNDEuOTc1MzA4NjQxOTc1MzEsMCkiLz48L2c+PGcgaWQ9ImoiPjx1c2UgeGxpbms6aHJlZj0iI2FlIiB0cmFuc2Zvcm09Im1hdHJpeCgwLjA2MTcyODM5NTA2MTcyODM5LDAsMCwwLjA2MTcyODM5NTA2MTcyODM5LDAsMCkiLz48dXNlIHhsaW5rOmhyZWY9IiNRIiB0cmFuc2Zvcm09Im1hdHJpeCgwLjA2MTcyODM5NTA2MTcyODM5LDAsMCwwLjA2MTcyODM5NTA2MTcyODM5LDEyLjM0NTY3OTAxMjM0NTY3OSwwKSIvPjwvZz48ZyBpZD0iayI+PHVzZSB4bGluazpocmVmPSIjUiIgdHJhbnNmb3JtPSJtYXRyaXgoMC4wNjE3MjgzOTUwNjE3MjgzOSwwLDAsMC4wNjE3MjgzOTUwNjE3MjgzOSwwLDApIi8+PHVzZSB4bGluazpocmVmPSIjYWMiIHRyYW5zZm9ybT0ibWF0cml4KDAuMDYxNzI4Mzk1MDYxNzI4MzksMCwwLDAuMDYxNzI4Mzk1MDYxNzI4MzksMTIuMzQ1Njc5MDEyMzQ1Njc5LDApIi8+PHVzZSB4bGluazpocmVmPSIjVyIgdHJhbnNmb3JtPSJtYXRyaXgoMC4wNjE3MjgzOTUwNjE3MjgzOSwwLDAsMC4wNjE3MjgzOTUwNjE3MjgzOSwyNC42OTEzNTgwMjQ2OTEzNTgsMCkiLz48dXNlIHhsaW5rOmhyZWY9IiNQIiB0cmFuc2Zvcm09Im1hdHJpeCgwLjA2MTcyODM5NTA2MTcyODM5LDAsMCwwLjA2MTcyODM5NTA2MTcyODM5LDM1LjgwMjQ2OTEzNTgwMjQ3LDApIi8+PHVzZSB4bGluazpocmVmPSIjWiIgdHJhbnNmb3JtPSJtYXRyaXgoMC4wNjE3MjgzOTUwNjE3MjgzOSwwLDAsMC4wNjE3MjgzOTUwNjE3MjgzOSw0MC42NzkwMTIzNDU2NzkwMSwwKSIvPjx1c2UgeGxpbms6aHJlZj0iI1AiIHRyYW5zZm9ybT0ibWF0cml4KDAuMDYxNzI4Mzk1MDYxNzI4MzksMCwwLDAuMDYxNzI4Mzk1MDYxNzI4MzksNTkuMTM1ODAyNDY5MTM1OCwwKSIvPjx1c2UgeGxpbms6aHJlZj0iI1EiIHRyYW5zZm9ybT0ibWF0cml4KDAuMDYxNzI4Mzk1MDYxNzI4MzksMCwwLDAuMDYxNzI4Mzk1MDYxNzI4MzksNjQuMDEyMzQ1Njc5MDEyMzQsMCkiLz48dXNlIHhsaW5rOmhyZWY9IiNSIiB0cmFuc2Zvcm09Im1hdHJpeCgwLjA2MTcyODM5NTA2MTcyODM5LDAsMCwwLjA2MTcyODM5NTA2MTcyODM5LDc2LjM1ODAyNDY5MTM1ODAzLDApIi8+PHVzZSB4bGluazpocmVmPSIjUyIgdHJhbnNmb3JtPSJtYXRyaXgoMC4wNjE3MjgzOTUwNjE3MjgzOSwwLDAsMC4wNjE3MjgzOTUwNjE3MjgzOSw4OC43MDM3MDM3MDM3MDM3MSwwKSIvPjx1c2UgeGxpbms6aHJlZj0iI1kiIHRyYW5zZm9ybT0ibWF0cml4KDAuMDYxNzI4Mzk1MDYxNzI4MzksMCwwLDAuMDYxNzI4Mzk1MDYxNzI4MzksOTQuODc2NTQzMjA5ODc2NTQsMCkiLz48L2c+PGcgaWQ9ImwiPjx1c2UgeGxpbms6aHJlZj0iI2FkIiB0cmFuc2Zvcm09Im1hdHJpeCgwLjA2MTcyODM5NTA2MTcyODM5LDAsMCwwLjA2MTcyODM5NTA2MTcyODM5LDAsMCkiLz48dXNlIHhsaW5rOmhyZWY9IiNhYyIgdHJhbnNmb3JtPSJtYXRyaXgoMC4wNjE3MjgzOTUwNjE3MjgzOSwwLDAsMC4wNjE3MjgzOTUwNjE3MjgzOSwxMi4zNDU2NzkwMTIzNDU2NzksMCkiLz48dXNlIHhsaW5rOmhyZWY9IiNQIiB0cmFuc2Zvcm09Im1hdHJpeCgwLjA2MTcyODM5NTA2MTcyODM5LDAsMCwwLjA2MTcyODM5NTA2MTcyODM5LDI0LjY5MTM1ODAyNDY5MTM1OCwwKSIvPjx1c2UgeGxpbms6aHJlZj0iI2FtIiB0cmFuc2Zvcm09Im1hdHJpeCgwLjA2MTcyODM5NTA2MTcyODM5LDAsMCwwLjA2MTcyODM5NTA2MTcyODM5LDI5LjU2NzkwMTIzNDU2NzksMCkiLz48L2c+PGcgaWQ9Im0iPjx1c2UgeGxpbms6aHJlZj0iI1AiIHRyYW5zZm9ybT0ibWF0cml4KDAuMDYxNzI4Mzk1MDYxNzI4MzksMCwwLDAuMDYxNzI4Mzk1MDYxNzI4MzksMCwwKSIvPjx1c2UgeGxpbms6aHJlZj0iI2FlIiB0cmFuc2Zvcm09Im1hdHJpeCgwLjA2MTcyODM5NTA2MTcyODM5LDAsMCwwLjA2MTcyODM5NTA2MTcyODM5LDQuODc2NTQzMjA5ODc2NTQzLDApIi8+PHBhdGggZD0iTS0xLjEgMS41NGgxOS40M3YxLjYzSC0xLjF6IiBmaWxsPSIjMzMzIi8+PC9nPjxnIGlkPSJuIj48dXNlIHhsaW5rOmhyZWY9IiNaIiB0cmFuc2Zvcm09Im1hdHJpeCgwLjA2MTcyODM5NTA2MTcyODM5LDAsMCwwLjA2MTcyODM5NTA2MTcyODM5LDAsMCkiLz48dXNlIHhsaW5rOmhyZWY9IiNhYyIgdHJhbnNmb3JtPSJtYXRyaXgoMC4wNjE3MjgzOTUwNjE3MjgzOSwwLDAsMC4wNjE3MjgzOTUwNjE3MjgzOSwxOC40NTY3OTAxMjM0NTY3ODgsMCkiLz48dXNlIHhsaW5rOmhyZWY9IiNTIiB0cmFuc2Zvcm09Im1hdHJpeCgwLjA2MTcyODM5NTA2MTcyODM5LDAsMCwwLjA2MTcyODM5NTA2MTcyODM5LDMwLjgwMjQ2OTEzNTgwMjQ3LDApIi8+PHVzZSB4bGluazpocmVmPSIjYWIiIHRyYW5zZm9ybT0ibWF0cml4KDAuMDYxNzI4Mzk1MDYxNzI4MzksMCwwLDAuMDYxNzI4Mzk1MDYxNzI4MzksMzYuOTc1MzA4NjQxOTc1MzEsMCkiLz48dXNlIHhsaW5rOmhyZWY9IiNWIiB0cmFuc2Zvcm09Im1hdHJpeCgwLjA2MTcyODM5NTA2MTcyODM5LDAsMCwwLjA2MTcyODM5NTA2MTcyODM5LDQ0LjMyMDk4NzY1NDMyMDk5LDApIi8+PHVzZSB4bGluazpocmVmPSIjVyIgdHJhbnNmb3JtPSJtYXRyaXgoMC4wNjE3MjgzOTUwNjE3MjgzOSwwLDAsMC4wNjE3MjgzOTUwNjE3MjgzOSw1MC40OTM4MjcxNjA0OTM4MywwKSIvPjx1c2UgeGxpbms6aHJlZj0iI1giIHRyYW5zZm9ybT0ibWF0cml4KDAuMDYxNzI4Mzk1MDYxNzI4MzksMCwwLDAuMDYxNzI4Mzk1MDYxNzI4MzksNjEuNjA0OTM4MjcxNjA0OTQsMCkiLz48dXNlIHhsaW5rOmhyZWY9IiNPIiB0cmFuc2Zvcm09Im1hdHJpeCgwLjA2MTcyODM5NTA2MTcyODM5LDAsMCwwLjA2MTcyODM5NTA2MTcyODM5LDczLjk1MDYxNzI4Mzk1MDYyLDApIi8+PHVzZSB4bGluazpocmVmPSIjYWMiIHRyYW5zZm9ybT0ibWF0cml4KDAuMDYxNzI4Mzk1MDYxNzI4MzksMCwwLDAuMDYxNzI4Mzk1MDYxNzI4MzksNzguODI3MTYwNDkzODI3MTcsMCkiLz48cGF0aCBkPSJNLTEuMSAxLjU0aDkzLjR2MS42M0gtMS4xeiIgZmlsbD0iIzMzMyIvPjwvZz48cGF0aCBpZD0iYW8iIGQ9Ik0xNzctMTkwQzE2Ny02NSAyMTggMTAzIDY3IDcxYy0yMy02LTM4LTIwLTQ0LTQzbDMyLTVjMTUgNDcgMTAwIDMyIDg5LTI4di0zMEMxMzMtMTQgMTE1IDEgODMgMSAyOSAxIDE1LTQwIDE1LTk1YzAtNTYgMTYtOTcgNzEtOTggMjktMSA0OCAxNiA1OSAzNSAxLTEwIDAtMjMgMi0zMmgzMHpNOTQtMjJjMzYgMCA1MC0zMiA1MC03MyAwLTQyLTE0LTc1LTUwLTc1LTM5IDAtNDYgMzQtNDYgNzVzNiA3MyA0NiA3MyIgZmlsbD0iIzMzMyIvPjxnIGlkPSJvIj48dXNlIHhsaW5rOmhyZWY9IiNXIiB0cmFuc2Zvcm09Im1hdHJpeCgwLjA2MTcyODM5NTA2MTcyODM5LDAsMCwwLjA2MTcyODM5NTA2MTcyODM5LDAsMCkiLz48dXNlIHhsaW5rOmhyZWY9IiNhYyIgdHJhbnNmb3JtPSJtYXRyaXgoMC4wNjE3MjgzOTUwNjE3MjgzOSwwLDAsMC4wNjE3MjgzOTUwNjE3MjgzOSwxMS4xMTExMTExMTExMTExMSwwKSIvPjx1c2UgeGxpbms6aHJlZj0iI1MiIHRyYW5zZm9ybT0ibWF0cml4KDAuMDYxNzI4Mzk1MDYxNzI4MzksMCwwLDAuMDYxNzI4Mzk1MDYxNzI4MzksMjMuNDU2NzkwMTIzNDU2NzksMCkiLz48dXNlIHhsaW5rOmhyZWY9IiNRIiB0cmFuc2Zvcm09Im1hdHJpeCgwLjA2MTcyODM5NTA2MTcyODM5LDAsMCwwLjA2MTcyODM5NTA2MTcyODM5LDI5LjYyOTYyOTYyOTYyOTYzLDApIi8+PHVzZSB4bGluazpocmVmPSIjYW8iIHRyYW5zZm9ybT0ibWF0cml4KDAuMDYxNzI4Mzk1MDYxNzI4MzksMCwwLDAuMDYxNzI4Mzk1MDYxNzI4MzksNDEuOTc1MzA4NjQxOTc1MzEsMCkiLz48dXNlIHhsaW5rOmhyZWY9IiNZIiB0cmFuc2Zvcm09Im1hdHJpeCgwLjA2MTcyODM5NTA2MTcyODM5LDAsMCwwLjA2MTcyODM5NTA2MTcyODM5LDU0LjMyMDk4NzY1NDMyMDk5LDApIi8+PHVzZSB4bGluazpocmVmPSIjYWIiIHRyYW5zZm9ybT0ibWF0cml4KDAuMDYxNzI4Mzk1MDYxNzI4MzksMCwwLDAuMDYxNzI4Mzk1MDYxNzI4MzksNjYuNjY2NjY2NjY2NjY2NjcsMCkiLz48dXNlIHhsaW5rOmhyZWY9IiNWIiB0cmFuc2Zvcm09Im1hdHJpeCgwLjA2MTcyODM5NTA2MTcyODM5LDAsMCwwLjA2MTcyODM5NTA2MTcyODM5LDc0LjAxMjM0NTY3OTAxMjM2LDApIi8+PHVzZSB4bGluazpocmVmPSIjYWMiIHRyYW5zZm9ybT0ibWF0cml4KDAuMDYxNzI4Mzk1MDYxNzI4MzksMCwwLDAuMDYxNzI4Mzk1MDYxNzI4MzksODAuMTg1MTg1MTg1MTg1MTksMCkiLz48cGF0aCBkPSJNLTEuMSAxLjU0aDk0Ljc0djEuNjNILTEuMXoiIGZpbGw9IiMzMzMiLz48L2c+PHBhdGggaWQ9ImFwIiBkPSJNMTE4LTE5NGM4OS00IDUzIDExNiA2MCAxOTRoLTMydi0xMjFjMC0zMS04LTQ5LTM5LTQ4QzM1LTE2NyA2My02NyA1OCAwSDI2bC0xLTE5MGgzMGMxIDEwLTEgMjQgMiAzMiAxMS0yMiAyOS0zNSA2MS0zNnptNDctNjRjLTMgMjMtOSA0OC0zNiA0Ny0yNi0xLTY1LTQ0LTc0IDBIMzljNC0yMyA4LTQ4IDM2LTQ3czY0IDQ0IDc0IDBoMTYiIGZpbGw9IiMzMzMiLz48ZyBpZD0icCI+PHVzZSB4bGluazpocmVmPSIjYWMiIHRyYW5zZm9ybT0ibWF0cml4KDAuMDYxNzI4Mzk1MDYxNzI4MzksMCwwLDAuMDYxNzI4Mzk1MDYxNzI4MzksMCwwKSIvPjx1c2UgeGxpbms6aHJlZj0iI2FwIiB0cmFuc2Zvcm09Im1hdHJpeCgwLjA2MTcyODM5NTA2MTcyODM5LDAsMCwwLjA2MTcyODM5NTA2MTcyODM5LDEyLjM0NTY3OTAxMjM0NTY3OSwwKSIvPjx1c2UgeGxpbms6aHJlZj0iI1kiIHRyYW5zZm9ybT0ibWF0cml4KDAuMDYxNzI4Mzk1MDYxNzI4MzksMCwwLDAuMDYxNzI4Mzk1MDYxNzI4MzksMjQuNjkxMzU4MDI0NjkxMzU4LDApIi8+PC9nPjxnIGlkPSJxIj48dXNlIHhsaW5rOmhyZWY9IiNhbCIgdHJhbnNmb3JtPSJtYXRyaXgoMC4wNjE3MjgzOTUwNjE3MjgzOSwwLDAsMC4wNjE3MjgzOTUwNjE3MjgzOSwwLDApIi8+PHVzZSB4bGluazpocmVmPSIjYWMiIHRyYW5zZm9ybT0ibWF0cml4KDAuMDYxNzI4Mzk1MDYxNzI4MzksMCwwLDAuMDYxNzI4Mzk1MDYxNzI4MzksNi4xNzI4Mzk1MDYxNzI4MzksMCkiLz48dXNlIHhsaW5rOmhyZWY9IiNhYSIgdHJhbnNmb3JtPSJtYXRyaXgoMC4wNjE3MjgzOTUwNjE3MjgzOSwwLDAsMC4wNjE3MjgzOTUwNjE3MjgzOSwxOC41MTg1MTg1MTg1MTg1MiwwKSIvPjx1c2UgeGxpbms6aHJlZj0iI2FiIiB0cmFuc2Zvcm09Im1hdHJpeCgwLjA2MTcyODM5NTA2MTcyODM5LDAsMCwwLjA2MTcyODM5NTA2MTcyODM5LDMwLjg2NDE5NzUzMDg2NDE5NiwwKSIvPjx1c2UgeGxpbms6aHJlZj0iI1AiIHRyYW5zZm9ybT0ibWF0cml4KDAuMDYxNzI4Mzk1MDYxNzI4MzksMCwwLDAuMDYxNzI4Mzk1MDYxNzI4MzksMzguMjA5ODc2NTQzMjA5ODcsMCkiLz48dXNlIHhsaW5rOmhyZWY9IiNXIiB0cmFuc2Zvcm09Im1hdHJpeCgwLjA2MTcyODM5NTA2MTcyODM5LDAsMCwwLjA2MTcyODM5NTA2MTcyODM5LDQzLjA4NjQxOTc1MzA4NjQyLDApIi8+PHVzZSB4bGluazpocmVmPSIjYWMiIHRyYW5zZm9ybT0ibWF0cml4KDAuMDYxNzI4Mzk1MDYxNzI4MzksMCwwLDAuMDYxNzI4Mzk1MDYxNzI4MzksNTQuMTk3NTMwODY0MTk3NTMsMCkiLz48dXNlIHhsaW5rOmhyZWY9IiNXIiB0cmFuc2Zvcm09Im1hdHJpeCgwLjA2MTcyODM5NTA2MTcyODM5LDAsMCwwLjA2MTcyODM5NTA2MTcyODM5LDY2LjU0MzIwOTg3NjU0MzIyLDApIi8+PHVzZSB4bGluazpocmVmPSIjUCIgdHJhbnNmb3JtPSJtYXRyaXgoMC4wNjE3MjgzOTUwNjE3MjgzOSwwLDAsMC4wNjE3MjgzOTUwNjE3MjgzOSw3Ny42NTQzMjA5ODc2NTQzMywwKSIvPjx1c2UgeGxpbms6aHJlZj0iI1kiIHRyYW5zZm9ybT0ibWF0cml4KDAuMDYxNzI4Mzk1MDYxNzI4MzksMCwwLDAuMDYxNzI4Mzk1MDYxNzI4MzksODIuNTMwODY0MTk3NTMwODcsMCkiLz48dXNlIHhsaW5rOmhyZWY9IiNSIiB0cmFuc2Zvcm09Im1hdHJpeCgwLjA2MTcyODM5NTA2MTcyODM5LDAsMCwwLjA2MTcyODM5NTA2MTcyODM5LDk0Ljg3NjU0MzIwOTg3NjU2LDApIi8+PC9nPjxnIGlkPSJyIj48dXNlIHhsaW5rOmhyZWY9IiNhYiIgdHJhbnNmb3JtPSJtYXRyaXgoMC4wNjE3MjgzOTUwNjE3MjgzOSwwLDAsMC4wNjE3MjgzOTUwNjE3MjgzOSwwLDApIi8+PHVzZSB4bGluazpocmVmPSIjUSIgdHJhbnNmb3JtPSJtYXRyaXgoMC4wNjE3MjgzOTUwNjE3MjgzOSwwLDAsMC4wNjE3MjgzOTUwNjE3MjgzOSw3LjM0NTY3OTAxMjM0NTY3OSwwKSIvPjx1c2UgeGxpbms6aHJlZj0iI2FtIiB0cmFuc2Zvcm09Im1hdHJpeCgwLjA2MTcyODM5NTA2MTcyODM5LDAsMCwwLjA2MTcyODM5NTA2MTcyODM5LDE5LjY5MTM1ODAyNDY5MTM1OCwwKSIvPjx1c2UgeGxpbms6aHJlZj0iI1EiIHRyYW5zZm9ybT0ibWF0cml4KDAuMDYxNzI4Mzk1MDYxNzI4MzksMCwwLDAuMDYxNzI4Mzk1MDYxNzI4MzksMzAuODAyNDY5MTM1ODAyNDcsMCkiLz48dXNlIHhsaW5rOmhyZWY9IiNhYiIgdHJhbnNmb3JtPSJtYXRyaXgoMC4wNjE3MjgzOTUwNjE3MjgzOSwwLDAsMC4wNjE3MjgzOTUwNjE3MjgzOSw0My4xNDgxNDgxNDgxNDgxNDUsMCkiLz48dXNlIHhsaW5rOmhyZWY9IiNUIiB0cmFuc2Zvcm09Im1hdHJpeCgwLjA2MTcyODM5NTA2MTcyODM5LDAsMCwwLjA2MTcyODM5NTA2MTcyODM5LDUwLjQ5MzgyNzE2MDQ5MzgyLDApIi8+PHVzZSB4bGluazpocmVmPSIjYWMiIHRyYW5zZm9ybT0ibWF0cml4KDAuMDYxNzI4Mzk1MDYxNzI4MzksMCwwLDAuMDYxNzI4Mzk1MDYxNzI4MzksNjEuNjA0OTM4MjcxNjA0OTQsMCkiLz48L2c+PHBhdGggaWQ9ImFxIiBkPSJNMjUgMHYtMTkwaDUwVjBIMjV6bS01LTIwOHYtNWw0NS01MWg0NXY4bC02MCA0OEgyMCIgZmlsbD0iIzMzMyIvPjx1c2UgaWQ9InMiIHhsaW5rOmhyZWY9IiNhcSIgdHJhbnNmb3JtPSJtYXRyaXgoMC4wNDkzODI3MTYwNDkzODI3MiwwLDAsMC4wNDkzODI3MTYwNDkzODI3MiwwLDApIi8+PHBhdGggaWQ9ImFyIiBkPSJNMTc5LTE5MEw5MyAzMUM3OSA1OSA1NiA4MiAxMiA3M1Y0OWMzOSA2IDUzLTIwIDY0LTUwTDEtMTkwaDM0TDkyLTM0bDU0LTE1NmgzMyIgZmlsbD0iIzMzMyIvPjxnIGlkPSJ0Ij48dXNlIHhsaW5rOmhyZWY9IiNTIiB0cmFuc2Zvcm09Im1hdHJpeCgwLjA2MTcyODM5NTA2MTcyODM5LDAsMCwwLjA2MTcyODM5NTA2MTcyODM5LDAsMCkiLz48dXNlIHhsaW5rOmhyZWY9IiNhYiIgdHJhbnNmb3JtPSJtYXRyaXgoMC4wNjE3MjgzOTUwNjE3MjgzOSwwLDAsMC4wNjE3MjgzOTUwNjE3MjgzOSw2LjE3MjgzOTUwNjE3MjgzOSwwKSIvPjx1c2UgeGxpbms6aHJlZj0iI2FjIiB0cmFuc2Zvcm09Im1hdHJpeCgwLjA2MTcyODM5NTA2MTcyODM5LDAsMCwwLjA2MTcyODM5NTA2MTcyODM5LDEzLjUxODUxODUxODUxODUxOSwwKSIvPjx1c2UgeGxpbms6aHJlZj0iI2FyIiB0cmFuc2Zvcm09Im1hdHJpeCgwLjA2MTcyODM5NTA2MTcyODM5LDAsMCwwLjA2MTcyODM5NTA2MTcyODM5LDI1Ljg2NDE5NzUzMDg2NDE5NiwwKSIvPjx1c2UgeGxpbms6aHJlZj0iI1EiIHRyYW5zZm9ybT0ibWF0cml4KDAuMDYxNzI4Mzk1MDYxNzI4MzksMCwwLDAuMDYxNzI4Mzk1MDYxNzI4MzksMzYuOTc1MzA4NjQxOTc1MywwKSIvPjx1c2UgeGxpbms6aHJlZj0iI1ciIHRyYW5zZm9ybT0ibWF0cml4KDAuMDYxNzI4Mzk1MDYxNzI4MzksMCwwLDAuMDYxNzI4Mzk1MDYxNzI4MzksNDkuMzIwOTg3NjU0MzIwOTgsMCkiLz48dXNlIHhsaW5rOmhyZWY9IiNTIiB0cmFuc2Zvcm09Im1hdHJpeCgwLjA2MTcyODM5NTA2MTcyODM5LDAsMCwwLjA2MTcyODM5NTA2MTcyODM5LDYwLjQzMjA5ODc2NTQzMjA5LDApIi8+PHVzZSB4bGluazpocmVmPSIjWSIgdHJhbnNmb3JtPSJtYXRyaXgoMC4wNjE3MjgzOTUwNjE3MjgzOSwwLDAsMC4wNjE3MjgzOTUwNjE3MjgzOSw2Ni42MDQ5MzgyNzE2MDQ5MiwwKSIvPjwvZz48cGF0aCBpZD0iYXMiIGQ9Ik0xNDUtMzFDMTM0LTkgMTE2IDQgODUgNCAzMiA0IDE2LTM1IDE1LTk0YzAtNTkgMTctOTkgNzAtMTAwIDMyLTEgNDggMTQgNjAgMzMgMC0xMS0xLTI0IDItMzJoMzBsLTEgMjY4aC0zMnpNOTMtMjFjNDEgMCA1MS0zMyA1MS03NnMtOC03My01MC03M2MtNDAgMC00NiAzNS00NiA3NXM1IDc0IDQ1IDc0IiBmaWxsPSIjMzMzIi8+PGcgaWQ9InUiPjx1c2UgeGxpbms6aHJlZj0iI2FjIiB0cmFuc2Zvcm09Im1hdHJpeCgwLjA2MTcyODM5NTA2MTcyODM5LDAsMCwwLjA2MTcyODM5NTA2MTcyODM5LDAsMCkiLz48dXNlIHhsaW5rOmhyZWY9IiNPIiB0cmFuc2Zvcm09Im1hdHJpeCgwLjA2MTcyODM5NTA2MTcyODM5LDAsMCwwLjA2MTcyODM5NTA2MTcyODM5LDEyLjM0NTY3OTAxMjM0NTY3OSwwKSIvPjx1c2UgeGxpbms6aHJlZj0iI2FzIiB0cmFuc2Zvcm09Im1hdHJpeCgwLjA2MTcyODM5NTA2MTcyODM5LDAsMCwwLjA2MTcyODM5NTA2MTcyODM5LDE3LjIyMjIyMjIyMjIyMjIyLDApIi8+PHVzZSB4bGluazpocmVmPSIjWCIgdHJhbnNmb3JtPSJtYXRyaXgoMC4wNjE3MjgzOTUwNjE3MjgzOSwwLDAsMC4wNjE3MjgzOTUwNjE3MjgzOSwyOS41Njc5MDEyMzQ1Njc5LDApIi8+PHVzZSB4bGluazpocmVmPSIjUCIgdHJhbnNmb3JtPSJtYXRyaXgoMC4wNjE3MjgzOTUwNjE3MjgzOSwwLDAsMC4wNjE3MjgzOTUwNjE3MjgzOSw0MS45MTM1ODAyNDY5MTM1NzUsMCkiLz48dXNlIHhsaW5rOmhyZWY9IiNPIiB0cmFuc2Zvcm09Im1hdHJpeCgwLjA2MTcyODM5NTA2MTcyODM5LDAsMCwwLjA2MTcyODM5NTA2MTcyODM5LDQ2Ljc5MDEyMzQ1Njc5MDEyLDApIi8+PHVzZSB4bGluazpocmVmPSIjUSIgdHJhbnNmb3JtPSJtYXRyaXgoMC4wNjE3MjgzOTUwNjE3MjgzOSwwLDAsMC4wNjE3MjgzOTUwNjE3MjgzOSw1MS42NjY2NjY2NjY2NjY2NjQsMCkiLz48dXNlIHhsaW5rOmhyZWY9IiNhYiIgdHJhbnNmb3JtPSJtYXRyaXgoMC4wNjE3MjgzOTUwNjE3MjgzOSwwLDAsMC4wNjE3MjgzOTUwNjE3MjgzOSw2NC4wMTIzNDU2NzkwMTIzNCwwKSIvPjwvZz48ZyBpZD0idiI+PHVzZSB4bGluazpocmVmPSIjUiIgdHJhbnNmb3JtPSJtYXRyaXgoMC4wNjE3MjgzOTUwNjE3MjgzOSwwLDAsMC4wNjE3MjgzOTUwNjE3MjgzOSwwLDApIi8+PHVzZSB4bGluazpocmVmPSIjWCIgdHJhbnNmb3JtPSJtYXRyaXgoMC4wNjE3MjgzOTUwNjE3MjgzOSwwLDAsMC4wNjE3MjgzOTUwNjE3MjgzOSwxMi4zNDU2NzkwMTIzNDU2NzksMCkiLz48dXNlIHhsaW5rOmhyZWY9IiNaIiB0cmFuc2Zvcm09Im1hdHJpeCgwLjA2MTcyODM5NTA2MTcyODM5LDAsMCwwLjA2MTcyODM5NTA2MTcyODM5LDI0LjY5MTM1ODAyNDY5MTM1OCwwKSIvPjx1c2UgeGxpbms6aHJlZj0iI1EiIHRyYW5zZm9ybT0ibWF0cml4KDAuMDYxNzI4Mzk1MDYxNzI4MzksMCwwLDAuMDYxNzI4Mzk1MDYxNzI4MzksNDMuMTQ4MTQ4MTQ4MTQ4MTQ1LDApIi8+PHVzZSB4bGluazpocmVmPSIjYWIiIHRyYW5zZm9ybT0ibWF0cml4KDAuMDYxNzI4Mzk1MDYxNzI4MzksMCwwLDAuMDYxNzI4Mzk1MDYxNzI4MzksNTUuNDkzODI3MTYwNDkzODIsMCkiLz48dXNlIHhsaW5rOmhyZWY9IiNZIiB0cmFuc2Zvcm09Im1hdHJpeCgwLjA2MTcyODM5NTA2MTcyODM5LDAsMCwwLjA2MTcyODM5NTA2MTcyODM5LDYyLjgzOTUwNjE3MjgzOTUsMCkiLz48cGF0aCBkPSJNLTEuMSAxLjU0aDgzLjU3djEuNjNILTEuMXoiIGZpbGw9IiMzMzMiLz48L2c+PGcgaWQ9InciPjx1c2UgeGxpbms6aHJlZj0iI2FlIiB0cmFuc2Zvcm09Im1hdHJpeCgwLjA2MTcyODM5NTA2MTcyODM5LDAsMCwwLjA2MTcyODM5NTA2MTcyODM5LDAsMCkiLz48dXNlIHhsaW5rOmhyZWY9IiNRIiB0cmFuc2Zvcm09Im1hdHJpeCgwLjA2MTcyODM5NTA2MTcyODM5LDAsMCwwLjA2MTcyODM5NTA2MTcyODM5LDEyLjM0NTY3OTAxMjM0NTY3OSwwKSIvPjxwYXRoIGQ9Ik0tMS4xIDEuNTRoMjYuOXYxLjYzSC0xLjF6IiBmaWxsPSIjMzMzIi8+PC9nPjxnIGlkPSJ4Ij48dXNlIHhsaW5rOmhyZWY9IiNXIiB0cmFuc2Zvcm09Im1hdHJpeCgwLjA2MTcyODM5NTA2MTcyODM5LDAsMCwwLjA2MTcyODM5NTA2MTcyODM5LDAsMCkiLz48dXNlIHhsaW5rOmhyZWY9IiNPIiB0cmFuc2Zvcm09Im1hdHJpeCgwLjA2MTcyODM5NTA2MTcyODM5LDAsMCwwLjA2MTcyODM5NTA2MTcyODM5LDExLjExMTExMTExMTExMTExLDApIi8+PHVzZSB4bGluazpocmVmPSIjUCIgdHJhbnNmb3JtPSJtYXRyaXgoMC4wNjE3MjgzOTUwNjE3MjgzOSwwLDAsMC4wNjE3MjgzOTUwNjE3MjgzOSwxNS45ODc2NTQzMjA5ODc2NTMsMCkiLz48dXNlIHhsaW5rOmhyZWY9IiNRIiB0cmFuc2Zvcm09Im1hdHJpeCgwLjA2MTcyODM5NTA2MTcyODM5LDAsMCwwLjA2MTcyODM5NTA2MTcyODM5LDIwLjg2NDE5NzUzMDg2NDE5NiwwKSIvPjx1c2UgeGxpbms6aHJlZj0iI1IiIHRyYW5zZm9ybT0ibWF0cml4KDAuMDYxNzI4Mzk1MDYxNzI4MzksMCwwLDAuMDYxNzI4Mzk1MDYxNzI4MzksMzMuMjA5ODc2NTQzMjA5ODcsMCkiLz48dXNlIHhsaW5rOmhyZWY9IiNTIiB0cmFuc2Zvcm09Im1hdHJpeCgwLjA2MTcyODM5NTA2MTcyODM5LDAsMCwwLjA2MTcyODM5NTA2MTcyODM5LDQ1LjU1NTU1NTU1NTU1NTU1LDApIi8+PHVzZSB4bGluazpocmVmPSIjUSIgdHJhbnNmb3JtPSJtYXRyaXgoMC4wNjE3MjgzOTUwNjE3MjgzOSwwLDAsMC4wNjE3MjgzOTUwNjE3MjgzOSw1MS43MjgzOTUwNjE3MjgzOSwwKSIvPjxwYXRoIGQ9Ik0tMS4xIDEuNTRoNjYuM3YxLjYzSC0xLjF6IiBmaWxsPSIjMzMzIi8+PC9nPjxnIGlkPSJ5Ij48dXNlIHhsaW5rOmhyZWY9IiNVIiB0cmFuc2Zvcm09Im1hdHJpeCgwLjA2MTcyODM5NTA2MTcyODM5LDAsMCwwLjA2MTcyODM5NTA2MTcyODM5LDAsMCkiLz48dXNlIHhsaW5rOmhyZWY9IiNZIiB0cmFuc2Zvcm09Im1hdHJpeCgwLjA2MTcyODM5NTA2MTcyODM5LDAsMCwwLjA2MTcyODM5NTA2MTcyODM5LDEyLjM0NTY3OTAxMjM0NTY3OSwwKSIvPjx1c2UgeGxpbms6aHJlZj0iI2FiIiB0cmFuc2Zvcm09Im1hdHJpeCgwLjA2MTcyODM5NTA2MTcyODM5LDAsMCwwLjA2MTcyODM5NTA2MTcyODM5LDI0LjY5MTM1ODAyNDY5MTM1OCwwKSIvPjx1c2UgeGxpbms6aHJlZj0iI2FjIiB0cmFuc2Zvcm09Im1hdHJpeCgwLjA2MTcyODM5NTA2MTcyODM5LDAsMCwwLjA2MTcyODM5NTA2MTcyODM5LDMyLjAzNzAzNzAzNzAzNzA0LDApIi8+PC9nPjxnIGlkPSJ6Ij48dXNlIHhsaW5rOmhyZWY9IiNQIiB0cmFuc2Zvcm09Im1hdHJpeCgwLjA2MTcyODM5NTA2MTcyODM5LDAsMCwwLjA2MTcyODM5NTA2MTcyODM5LDAsMCkiLz48dXNlIHhsaW5rOmhyZWY9IiNSIiB0cmFuc2Zvcm09Im1hdHJpeCgwLjA2MTcyODM5NTA2MTcyODM5LDAsMCwwLjA2MTcyODM5NTA2MTcyODM5LDQuODc2NTQzMjA5ODc2NTQzLDApIi8+PHVzZSB4bGluazpocmVmPSIjUCIgdHJhbnNmb3JtPSJtYXRyaXgoMC4wNjE3MjgzOTUwNjE3MjgzOSwwLDAsMC4wNjE3MjgzOTUwNjE3MjgzOSwxNy4yMjIyMjIyMjIyMjIyMiwwKSIvPjx1c2UgeGxpbms6aHJlZj0iI1ciIHRyYW5zZm9ybT0ibWF0cml4KDAuMDYxNzI4Mzk1MDYxNzI4MzksMCwwLDAuMDYxNzI4Mzk1MDYxNzI4MzksMjIuMDk4NzY1NDMyMDk4NzY2LDApIi8+PHVzZSB4bGluazpocmVmPSIjUCIgdHJhbnNmb3JtPSJtYXRyaXgoMC4wNjE3MjgzOTUwNjE3MjgzOSwwLDAsMC4wNjE3MjgzOTUwNjE3MjgzOSwzMy4yMDk4NzY1NDMyMDk4NywwKSIvPjx1c2UgeGxpbms6aHJlZj0iI1kiIHRyYW5zZm9ybT0ibWF0cml4KDAuMDYxNzI4Mzk1MDYxNzI4MzksMCwwLDAuMDYxNzI4Mzk1MDYxNzI4MzksMzguMDg2NDE5NzUzMDg2NDIsMCkiLz48L2c+PGcgaWQ9IkEiPjx1c2UgeGxpbms6aHJlZj0iI2FsIiB0cmFuc2Zvcm09Im1hdHJpeCgwLjA2MTcyODM5NTA2MTcyODM5LDAsMCwwLjA2MTcyODM5NTA2MTcyODM5LDAsMCkiLz48dXNlIHhsaW5rOmhyZWY9IiNQIiB0cmFuc2Zvcm09Im1hdHJpeCgwLjA2MTcyODM5NTA2MTcyODM5LDAsMCwwLjA2MTcyODM5NTA2MTcyODM5LDYuMTcyODM5NTA2MTcyODM5LDApIi8+PHVzZSB4bGluazpocmVmPSIjUiIgdHJhbnNmb3JtPSJtYXRyaXgoMC4wNjE3MjgzOTUwNjE3MjgzOSwwLDAsMC4wNjE3MjgzOTUwNjE3MjgzOSwxMS4wNDkzODI3MTYwNDkzODMsMCkiLz48L2c+PGcgaWQ9IkIiPjx1c2UgeGxpbms6aHJlZj0iI1QiIHRyYW5zZm9ybT0ibWF0cml4KDAuMDYxNzI4Mzk1MDYxNzI4MzksMCwwLDAuMDYxNzI4Mzk1MDYxNzI4MzksMCwwKSIvPjx1c2UgeGxpbms6aHJlZj0iI1EiIHRyYW5zZm9ybT0ibWF0cml4KDAuMDYxNzI4Mzk1MDYxNzI4MzksMCwwLDAuMDYxNzI4Mzk1MDYxNzI4MzksMTEuMTExMTExMTExMTExMTEsMCkiLz48dXNlIHhsaW5rOmhyZWY9IiNVIiB0cmFuc2Zvcm09Im1hdHJpeCgwLjA2MTcyODM5NTA2MTcyODM5LDAsMCwwLjA2MTcyODM5NTA2MTcyODM5LDIzLjQ1Njc5MDEyMzQ1Njc5LDApIi8+PHVzZSB4bGluazpocmVmPSIjViIgdHJhbnNmb3JtPSJtYXRyaXgoMC4wNjE3MjgzOTUwNjE3MjgzOSwwLDAsMC4wNjE3MjgzOTUwNjE3MjgzOSwzNS44MDI0NjkxMzU4MDI0NywwKSIvPjx1c2UgeGxpbms6aHJlZj0iI1ciIHRyYW5zZm9ybT0ibWF0cml4KDAuMDYxNzI4Mzk1MDYxNzI4MzksMCwwLDAuMDYxNzI4Mzk1MDYxNzI4MzksNDEuOTc1MzA4NjQxOTc1MzEsMCkiLz48dXNlIHhsaW5rOmhyZWY9IiNYIiB0cmFuc2Zvcm09Im1hdHJpeCgwLjA2MTcyODM5NTA2MTcyODM5LDAsMCwwLjA2MTcyODM5NTA2MTcyODM5LDUzLjA4NjQxOTc1MzA4NjQyLDApIi8+PHVzZSB4bGluazpocmVmPSIjTyIgdHJhbnNmb3JtPSJtYXRyaXgoMC4wNjE3MjgzOTUwNjE3MjgzOSwwLDAsMC4wNjE3MjgzOTUwNjE3MjgzOSw2NS40MzIwOTg3NjU0MzIxLDApIi8+PHVzZSB4bGluazpocmVmPSIjWSIgdHJhbnNmb3JtPSJtYXRyaXgoMC4wNjE3MjgzOTUwNjE3MjgzOSwwLDAsMC4wNjE3MjgzOTUwNjE3MjgzOSw3MC4zMDg2NDE5NzUzMDg2NSwwKSIvPjxwYXRoIGQ9Ik0tMS4xIDEuNTRoODQuODd2MS42M0gtMS4xeiIgZmlsbD0iIzMzMyIvPjwvZz48ZyBpZD0iQyI+PHVzZSB4bGluazpocmVmPSIjWiIgdHJhbnNmb3JtPSJtYXRyaXgoMC4wNjE3MjgzOTUwNjE3MjgzOSwwLDAsMC4wNjE3MjgzOTUwNjE3MjgzOSwwLDApIi8+PHVzZSB4bGluazpocmVmPSIjWSIgdHJhbnNmb3JtPSJtYXRyaXgoMC4wNjE3MjgzOTUwNjE3MjgzOSwwLDAsMC4wNjE3MjgzOTUwNjE3MjgzOSwxOC40NTY3OTAxMjM0NTY3ODgsMCkiLz48dXNlIHhsaW5rOmhyZWY9IiNhZSIgdHJhbnNmb3JtPSJtYXRyaXgoMC4wNjE3MjgzOTUwNjE3MjgzOSwwLDAsMC4wNjE3MjgzOTUwNjE3MjgzOSwzMC44MDI0NjkxMzU4MDI0NywwKSIvPjx1c2UgeGxpbms6aHJlZj0iI1EiIHRyYW5zZm9ybT0ibWF0cml4KDAuMDYxNzI4Mzk1MDYxNzI4MzksMCwwLDAuMDYxNzI4Mzk1MDYxNzI4MzksNDMuMTQ4MTQ4MTQ4MTQ4MTQ1LDApIi8+PHVzZSB4bGluazpocmVmPSIjTyIgdHJhbnNmb3JtPSJtYXRyaXgoMC4wNjE3MjgzOTUwNjE3MjgzOSwwLDAsMC4wNjE3MjgzOTUwNjE3MjgzOSw1NS40OTM4MjcxNjA0OTM4MiwwKSIvPjx1c2UgeGxpbms6aHJlZj0iI1kiIHRyYW5zZm9ybT0ibWF0cml4KDAuMDYxNzI4Mzk1MDYxNzI4MzksMCwwLDAuMDYxNzI4Mzk1MDYxNzI4MzksNjAuMzcwMzcwMzcwMzcwMzcsMCkiLz48cGF0aCBkPSJNLTEuMSAxLjU0aDc0LjkzdjEuNjNILTEuMXoiIGZpbGw9IiMzMzMiLz48L2c+PGcgaWQ9IkQiPjx1c2UgeGxpbms6aHJlZj0iI1ciIHRyYW5zZm9ybT0ibWF0cml4KDAuMDYxNzI4Mzk1MDYxNzI4MzksMCwwLDAuMDYxNzI4Mzk1MDYxNzI4MzksMCwwKSIvPjx1c2UgeGxpbms6aHJlZj0iI2FjIiB0cmFuc2Zvcm09Im1hdHJpeCgwLjA2MTcyODM5NTA2MTcyODM5LDAsMCwwLjA2MTcyODM5NTA2MTcyODM5LDExLjExMTExMTExMTExMTExLDApIi8+PHVzZSB4bGluazpocmVmPSIjUyIgdHJhbnNmb3JtPSJtYXRyaXgoMC4wNjE3MjgzOTUwNjE3MjgzOSwwLDAsMC4wNjE3MjgzOTUwNjE3MjgzOSwyMy40NTY3OTAxMjM0NTY3OSwwKSIvPjx1c2UgeGxpbms6aHJlZj0iI1EiIHRyYW5zZm9ybT0ibWF0cml4KDAuMDYxNzI4Mzk1MDYxNzI4MzksMCwwLDAuMDYxNzI4Mzk1MDYxNzI4MzksMjkuNjI5NjI5NjI5NjI5NjMsMCkiLz48dXNlIHhsaW5rOmhyZWY9IiNhbyIgdHJhbnNmb3JtPSJtYXRyaXgoMC4wNjE3MjgzOTUwNjE3MjgzOSwwLDAsMC4wNjE3MjgzOTUwNjE3MjgzOSw0MS45NzUzMDg2NDE5NzUzMSwwKSIvPjx1c2UgeGxpbms6aHJlZj0iI1kiIHRyYW5zZm9ybT0ibWF0cml4KDAuMDYxNzI4Mzk1MDYxNzI4MzksMCwwLDAuMDYxNzI4Mzk1MDYxNzI4MzksNTQuMzIwOTg3NjU0MzIwOTksMCkiLz48dXNlIHhsaW5rOmhyZWY9IiNhYiIgdHJhbnNmb3JtPSJtYXRyaXgoMC4wNjE3MjgzOTUwNjE3MjgzOSwwLDAsMC4wNjE3MjgzOTUwNjE3MjgzOSw2Ni42NjY2NjY2NjY2NjY2NywwKSIvPjx1c2UgeGxpbms6aHJlZj0iI1AiIHRyYW5zZm9ybT0ibWF0cml4KDAuMDYxNzI4Mzk1MDYxNzI4MzksMCwwLDAuMDYxNzI4Mzk1MDYxNzI4MzksNzQuMDEyMzQ1Njc5MDEyMzYsMCkiLz48dXNlIHhsaW5rOmhyZWY9IiNhYyIgdHJhbnNmb3JtPSJtYXRyaXgoMC4wNjE3MjgzOTUwNjE3MjgzOSwwLDAsMC4wNjE3MjgzOTUwNjE3MjgzOSw3OC44ODg4ODg4ODg4ODg5LDApIi8+PC9nPjxnIGlkPSJFIj48dXNlIHhsaW5rOmhyZWY9IiNaIiB0cmFuc2Zvcm09Im1hdHJpeCgwLjA2MTcyODM5NTA2MTcyODM5LDAsMCwwLjA2MTcyODM5NTA2MTcyODM5LDAsMCkiLz48dXNlIHhsaW5rOmhyZWY9IiNhYyIgdHJhbnNmb3JtPSJtYXRyaXgoMC4wNjE3MjgzOTUwNjE3MjgzOSwwLDAsMC4wNjE3MjgzOTUwNjE3MjgzOSwxOC40NTY3OTAxMjM0NTY3ODgsMCkiLz48dXNlIHhsaW5rOmhyZWY9IiNhYiIgdHJhbnNmb3JtPSJtYXRyaXgoMC4wNjE3MjgzOTUwNjE3MjgzOSwwLDAsMC4wNjE3MjgzOTUwNjE3MjgzOSwzMC44MDI0NjkxMzU4MDI0NywwKSIvPjx1c2UgeGxpbms6aHJlZj0iI1ciIHRyYW5zZm9ybT0ibWF0cml4KDAuMDYxNzI4Mzk1MDYxNzI4MzksMCwwLDAuMDYxNzI4Mzk1MDYxNzI4MzksMzguMTQ4MTQ4MTQ4MTQ4MTQ1LDApIi8+PHVzZSB4bGluazpocmVmPSIjYWMiIHRyYW5zZm9ybT0ibWF0cml4KDAuMDYxNzI4Mzk1MDYxNzI4MzksMCwwLDAuMDYxNzI4Mzk1MDYxNzI4MzksNDkuMjU5MjU5MjU5MjU5MjUsMCkiLz48L2c+PGcgaWQ9IkYiPjx1c2UgeGxpbms6aHJlZj0iI1oiIHRyYW5zZm9ybT0ibWF0cml4KDAuMDYxNzI4Mzk1MDYxNzI4MzksMCwwLDAuMDYxNzI4Mzk1MDYxNzI4MzksMCwwKSIvPjx1c2UgeGxpbms6aHJlZj0iI1kiIHRyYW5zZm9ybT0ibWF0cml4KDAuMDYxNzI4Mzk1MDYxNzI4MzksMCwwLDAuMDYxNzI4Mzk1MDYxNzI4MzksMTguNDU2NzkwMTIzNDU2Nzg4LDApIi8+PHVzZSB4bGluazpocmVmPSIjYWUiIHRyYW5zZm9ybT0ibWF0cml4KDAuMDYxNzI4Mzk1MDYxNzI4MzksMCwwLDAuMDYxNzI4Mzk1MDYxNzI4MzksMzAuODAyNDY5MTM1ODAyNDcsMCkiLz48dXNlIHhsaW5rOmhyZWY9IiNRIiB0cmFuc2Zvcm09Im1hdHJpeCgwLjA2MTcyODM5NTA2MTcyODM5LDAsMCwwLjA2MTcyODM5NTA2MTcyODM5LDQzLjE0ODE0ODE0ODE0ODE0NSwwKSIvPjx1c2UgeGxpbms6aHJlZj0iI08iIHRyYW5zZm9ybT0ibWF0cml4KDAuMDYxNzI4Mzk1MDYxNzI4MzksMCwwLDAuMDYxNzI4Mzk1MDYxNzI4MzksNTUuNDkzODI3MTYwNDkzODIsMCkiLz48dXNlIHhsaW5rOmhyZWY9IiNZIiB0cmFuc2Zvcm09Im1hdHJpeCgwLjA2MTcyODM5NTA2MTcyODM5LDAsMCwwLjA2MTcyODM5NTA2MTcyODM5LDYwLjM3MDM3MDM3MDM3MDM3LDApIi8+PC9nPjxnIGlkPSJHIj48dXNlIHhsaW5rOmhyZWY9IiNaIiB0cmFuc2Zvcm09Im1hdHJpeCgwLjA2MTcyODM5NTA2MTcyODM5LDAsMCwwLjA2MTcyODM5NTA2MTcyODM5LDAsMCkiLz48dXNlIHhsaW5rOmhyZWY9IiNhYyIgdHJhbnNmb3JtPSJtYXRyaXgoMC4wNjE3MjgzOTUwNjE3MjgzOSwwLDAsMC4wNjE3MjgzOTUwNjE3MjgzOSwxOC40NTY3OTAxMjM0NTY3ODgsMCkiLz48dXNlIHhsaW5rOmhyZWY9IiNhYiIgdHJhbnNmb3JtPSJtYXRyaXgoMC4wNjE3MjgzOTUwNjE3MjgzOSwwLDAsMC4wNjE3MjgzOTUwNjE3MjgzOSwzMC44MDI0NjkxMzU4MDI0NywwKSIvPjx1c2UgeGxpbms6aHJlZj0iI1ciIHRyYW5zZm9ybT0ibWF0cml4KDAuMDYxNzI4Mzk1MDYxNzI4MzksMCwwLDAuMDYxNzI4Mzk1MDYxNzI4MzksMzguMTQ4MTQ4MTQ4MTQ4MTQ1LDApIi8+PHVzZSB4bGluazpocmVmPSIjYWMiIHRyYW5zZm9ybT0ibWF0cml4KDAuMDYxNzI4Mzk1MDYxNzI4MzksMCwwLDAuMDYxNzI4Mzk1MDYxNzI4MzksNDkuMjU5MjU5MjU5MjU5MjUsMCkiLz48cGF0aCBkPSJNLTEuMSAxLjU0SDYyLjd2MS42M0gtMS4xeiIgZmlsbD0iIzMzMyIvPjwvZz48ZyBpZD0iSCI+PHVzZSB4bGluazpocmVmPSIjYWUiIHRyYW5zZm9ybT0ibWF0cml4KDAuMDYxNzI4Mzk1MDYxNzI4MzksMCwwLDAuMDYxNzI4Mzk1MDYxNzI4MzksMCwwKSIvPjx1c2UgeGxpbms6aHJlZj0iI1EiIHRyYW5zZm9ybT0ibWF0cml4KDAuMDYxNzI4Mzk1MDYxNzI4MzksMCwwLDAuMDYxNzI4Mzk1MDYxNzI4MzksMTIuMzQ1Njc5MDEyMzQ1Njc5LDApIi8+PHVzZSB4bGluazpocmVmPSIjYWwiIHRyYW5zZm9ybT0ibWF0cml4KDAuMDYxNzI4Mzk1MDYxNzI4MzksMCwwLDAuMDYxNzI4Mzk1MDYxNzI4MzksMjQuNjkxMzU4MDI0NjkxMzU4LDApIi8+PHVzZSB4bGluazpocmVmPSIjUCIgdHJhbnNmb3JtPSJtYXRyaXgoMC4wNjE3MjgzOTUwNjE3MjgzOSwwLDAsMC4wNjE3MjgzOTUwNjE3MjgzOSwzMC44NjQxOTc1MzA4NjQxOTYsMCkiLz48dXNlIHhsaW5rOmhyZWY9IiNSIiB0cmFuc2Zvcm09Im1hdHJpeCgwLjA2MTcyODM5NTA2MTcyODM5LDAsMCwwLjA2MTcyODM5NTA2MTcyODM5LDM1Ljc0MDc0MDc0MDc0MDc0LDApIi8+PHVzZSB4bGluazpocmVmPSIjUCIgdHJhbnNmb3JtPSJtYXRyaXgoMC4wNjE3MjgzOTUwNjE3MjgzOSwwLDAsMC4wNjE3MjgzOTUwNjE3MjgzOSw0OC4wODY0MTk3NTMwODY0MiwwKSIvPjx1c2UgeGxpbms6aHJlZj0iI2FlIiB0cmFuc2Zvcm09Im1hdHJpeCgwLjA2MTcyODM5NTA2MTcyODM5LDAsMCwwLjA2MTcyODM5NTA2MTcyODM5LDUyLjk2Mjk2Mjk2Mjk2Mjk2LDApIi8+PHVzZSB4bGluazpocmVmPSIjWSIgdHJhbnNmb3JtPSJtYXRyaXgoMC4wNjE3MjgzOTUwNjE3MjgzOSwwLDAsMC4wNjE3MjgzOTUwNjE3MjgzOSw2NS4zMDg2NDE5NzUzMDg2NSwwKSIvPjwvZz48ZyBpZD0iSSI+PHVzZSB4bGluazpocmVmPSIjYWQiIHRyYW5zZm9ybT0ibWF0cml4KDAuMDYxNzI4Mzk1MDYxNzI4MzksMCwwLDAuMDYxNzI4Mzk1MDYxNzI4MzksMCwwKSIvPjx1c2UgeGxpbms6aHJlZj0iI1kiIHRyYW5zZm9ybT0ibWF0cml4KDAuMDYxNzI4Mzk1MDYxNzI4MzksMCwwLDAuMDYxNzI4Mzk1MDYxNzI4MzksMTIuMzQ1Njc5MDEyMzQ1Njc5LDApIi8+PHVzZSB4bGluazpocmVmPSIjYWIiIHRyYW5zZm9ybT0ibWF0cml4KDAuMDYxNzI4Mzk1MDYxNzI4MzksMCwwLDAuMDYxNzI4Mzk1MDYxNzI4MzksMjQuNjkxMzU4MDI0NjkxMzU4LDApIi8+PC9nPjxnIGlkPSJKIj48dXNlIHhsaW5rOmhyZWY9IiNhcyIgdHJhbnNmb3JtPSJtYXRyaXgoMC4wNjE3MjgzOTUwNjE3MjgzOSwwLDAsMC4wNjE3MjgzOTUwNjE3MjgzOSwwLDApIi8+PHVzZSB4bGluazpocmVmPSIjWCIgdHJhbnNmb3JtPSJtYXRyaXgoMC4wNjE3MjgzOTUwNjE3MjgzOSwwLDAsMC4wNjE3MjgzOTUwNjE3MjgzOSwxMi4zNDU2NzkwMTIzNDU2NzksMCkiLz48dXNlIHhsaW5rOmhyZWY9IiNRIiB0cmFuc2Zvcm09Im1hdHJpeCgwLjA2MTcyODM5NTA2MTcyODM5LDAsMCwwLjA2MTcyODM5NTA2MTcyODM5LDI0LjY5MTM1ODAyNDY5MTM1OCwwKSIvPjwvZz48ZyBpZD0iSyI+PHVzZSB4bGluazpocmVmPSIjUyIgdHJhbnNmb3JtPSJtYXRyaXgoMC4wNjE3MjgzOTUwNjE3MjgzOSwwLDAsMC4wNjE3MjgzOTUwNjE3MjgzOSwwLDApIi8+PHVzZSB4bGluazpocmVmPSIjUCIgdHJhbnNmb3JtPSJtYXRyaXgoMC4wNjE3MjgzOTUwNjE3MjgzOSwwLDAsMC4wNjE3MjgzOTUwNjE3MjgzOSw2LjE3MjgzOTUwNjE3MjgzOSwwKSIvPjx1c2UgeGxpbms6aHJlZj0iI1EiIHRyYW5zZm9ybT0ibWF0cml4KDAuMDYxNzI4Mzk1MDYxNzI4MzksMCwwLDAuMDYxNzI4Mzk1MDYxNzI4MzksMTEuMDQ5MzgyNzE2MDQ5MzgzLDApIi8+PHVzZSB4bGluazpocmVmPSIjUiIgdHJhbnNmb3JtPSJtYXRyaXgoMC4wNjE3MjgzOTUwNjE3MjgzOSwwLDAsMC4wNjE3MjgzOTUwNjE3MjgzOSwyMy4zOTUwNjE3MjgzOTUwNjMsMCkiLz48dXNlIHhsaW5rOmhyZWY9IiNRIiB0cmFuc2Zvcm09Im1hdHJpeCgwLjA2MTcyODM5NTA2MTcyODM5LDAsMCwwLjA2MTcyODM5NTA2MTcyODM5LDM1Ljc0MDc0MDc0MDc0MDc0LDApIi8+PC9nPjxnIGlkPSJMIj48dXNlIHhsaW5rOmhyZWY9IiNhbCIgdHJhbnNmb3JtPSJtYXRyaXgoMC4wNjE3MjgzOTUwNjE3MjgzOSwwLDAsMC4wNjE3MjgzOTUwNjE3MjgzOSwwLDApIi8+PHVzZSB4bGluazpocmVmPSIjYWMiIHRyYW5zZm9ybT0ibWF0cml4KDAuMDYxNzI4Mzk1MDYxNzI4MzksMCwwLDAuMDYxNzI4Mzk1MDYxNzI4MzksNi4xNzI4Mzk1MDYxNzI4MzksMCkiLz48dXNlIHhsaW5rOmhyZWY9IiNhYSIgdHJhbnNmb3JtPSJtYXRyaXgoMC4wNjE3MjgzOTUwNjE3MjgzOSwwLDAsMC4wNjE3MjgzOTUwNjE3MjgzOSwxOC41MTg1MTg1MTg1MTg1MiwwKSIvPjx1c2UgeGxpbms6aHJlZj0iI2FiIiB0cmFuc2Zvcm09Im1hdHJpeCgwLjA2MTcyODM5NTA2MTcyODM5LDAsMCwwLjA2MTcyODM5NTA2MTcyODM5LDMwLjg2NDE5NzUzMDg2NDE5NiwwKSIvPjx1c2UgeGxpbms6aHJlZj0iI1AiIHRyYW5zZm9ybT0ibWF0cml4KDAuMDYxNzI4Mzk1MDYxNzI4MzksMCwwLDAuMDYxNzI4Mzk1MDYxNzI4MzksMzguMjA5ODc2NTQzMjA5ODcsMCkiLz48dXNlIHhsaW5rOmhyZWY9IiNXIiB0cmFuc2Zvcm09Im1hdHJpeCgwLjA2MTcyODM5NTA2MTcyODM5LDAsMCwwLjA2MTcyODM5NTA2MTcyODM5LDQzLjA4NjQxOTc1MzA4NjQyLDApIi8+PHVzZSB4bGluazpocmVmPSIjYWMiIHRyYW5zZm9ybT0ibWF0cml4KDAuMDYxNzI4Mzk1MDYxNzI4MzksMCwwLDAuMDYxNzI4Mzk1MDYxNzI4MzksNTQuMTk3NTMwODY0MTk3NTMsMCkiLz48dXNlIHhsaW5rOmhyZWY9IiNhZSIgdHJhbnNmb3JtPSJtYXRyaXgoMC4wNjE3MjgzOTUwNjE3MjgzOSwwLDAsMC4wNjE3MjgzOTUwNjE3MjgzOSw2Ni41NDMyMDk4NzY1NDMyMiwwKSIvPjx1c2UgeGxpbms6aHJlZj0iI1kiIHRyYW5zZm9ybT0ibWF0cml4KDAuMDYxNzI4Mzk1MDYxNzI4MzksMCwwLDAuMDYxNzI4Mzk1MDYxNzI4MzksNzguODg4ODg4ODg4ODg4OSwwKSIvPjwvZz48cGF0aCBpZD0iYXQiIGQ9Ik0xNjktMTgyYy0xLTQzLTk0LTQ2LTk3LTMgMTggNjYgMTUxIDEwIDE1NCAxMTQgMyA5NS0xNjUgOTMtMjA0IDM2LTYtOC0xMC0xOS0xMi0zMGw1MC04YzMgNDYgMTEyIDU2IDExNiA1LTE3LTY5LTE1MC0xMC0xNTQtMTE0LTQtODcgMTUzLTg4IDE4OC0zNSA1IDggOCAxOCAxMCAyOCIgZmlsbD0iIzMzMyIvPjxnIGlkPSJNIj48dXNlIHhsaW5rOmhyZWY9IiNhdCIgdHJhbnNmb3JtPSJtYXRyaXgoMC4wNDkzODI3MTYwNDkzODI3MiwwLDAsMC4wNDkzODI3MTYwNDkzODI3MiwwLDApIi8+PHVzZSB4bGluazpocmVmPSIjYXEiIHRyYW5zZm9ybT0ibWF0cml4KDAuMDQ5MzgyNzE2MDQ5MzgyNzIsMCwwLDAuMDQ5MzgyNzE2MDQ5MzgyNzIsMTEuODUxODUxODUxODUxODUzLDApIi8+PC9nPjwvZGVmcz48L2c+PC9zdmc+;" vertex="1" parent="1">
          <mxGeometry x="50" y="30" width="1113.54" height="1060" as="geometry" />
        </mxCell>
      </root>
    </mxGraphModel>
  </diagram>
</mxfile>
